<?xml version="1.0" encoding="utf-8"?>
<!-- Generator: Adobe Illustrator 23.0.2, SVG Export Plug-In . SVG Version: 6.00 Build 0)  -->
<!DOCTYPE svg PUBLIC "-//W3C//DTD SVG 1.1//EN" "http://www.w3.org/Graphics/SVG/1.1/DTD/svg11.dtd" [
	<!ENTITY ns_extend "http://ns.adobe.com/Extensibility/1.0/">
	<!ENTITY ns_ai "http://ns.adobe.com/AdobeIllustrator/10.0/">
	<!ENTITY ns_graphs "http://ns.adobe.com/Graphs/1.0/">
	<!ENTITY ns_vars "http://ns.adobe.com/Variables/1.0/">
	<!ENTITY ns_imrep "http://ns.adobe.com/ImageReplacement/1.0/">
	<!ENTITY ns_sfw "http://ns.adobe.com/SaveForWeb/1.0/">
	<!ENTITY ns_custom "http://ns.adobe.com/GenericCustomNamespace/1.0/">
	<!ENTITY ns_adobe_xpath "http://ns.adobe.com/XPath/1.0/">
]>
<svg version="1.1" xmlns:x="&ns_extend;" xmlns:i="&ns_ai;" xmlns:graph="&ns_graphs;"
	 xmlns="http://www.w3.org/2000/svg" xmlns:xlink="http://www.w3.org/1999/xlink" x="0px" y="0px" viewBox="0 0 750 750"
	 enable-background="new 0 0 750 750" xml:space="preserve">
<metadata>
	<sfw  xmlns="&ns_sfw;">
		<slices></slices>
		<sliceSourceBounds  bottomLeftOrigin="true" height="3636.771" width="3757.111" x="-3418.763" y="-921.725"></sliceSourceBounds>
	</sfw>
</metadata>
<g id="FILL-BACKGROUND">
</g>
<g id="N-DIMENSIONS" display="none">
	<g display="inline">
		<g>
			<path fill="#E74C3C" d="M338.527,47.407c-0.061-0.061-0.091-0.138-0.091-0.231v-2.044h-4.55c-0.093,0-0.17-0.03-0.231-0.091
				s-0.091-0.138-0.091-0.231v-0.518c0-0.131,0.051-0.271,0.154-0.42l4.214-5.936c0.047-0.075,0.117-0.134,0.21-0.176
				c0.093-0.042,0.196-0.062,0.308-0.062h0.952c0.103,0,0.182,0.027,0.238,0.084c0.056,0.056,0.084,0.135,0.084,0.238v5.936h1.274
				c0.093,0,0.17,0.03,0.231,0.091c0.061,0.061,0.091,0.138,0.091,0.231v0.531c0,0.094-0.03,0.171-0.091,0.231
				c-0.061,0.061-0.138,0.091-0.231,0.091h-1.274v2.044c0,0.094-0.031,0.171-0.091,0.231s-0.138,0.091-0.231,0.091h-0.644
				C338.665,47.498,338.587,47.468,338.527,47.407z M335.02,43.984h3.43v-4.872L335.02,43.984z"/>
			<path fill="#E74C3C" d="M343.567,46.581c-0.556-0.705-0.852-1.626-0.889-2.765l-0.014-1.204l0.014-1.246
				c0.028-1.129,0.324-2.046,0.889-2.751c0.564-0.705,1.444-1.058,2.639-1.058c1.204,0,2.088,0.353,2.653,1.058
				c0.564,0.705,0.861,1.622,0.889,2.751c0.009,0.262,0.014,0.677,0.014,1.246c0,0.551-0.005,0.952-0.014,1.204
				c-0.037,1.139-0.333,2.06-0.889,2.765c-0.556,0.705-1.44,1.057-2.653,1.057C345.002,47.638,344.122,47.286,343.567,46.581z
				 M347.83,45.762c0.364-0.476,0.555-1.147,0.574-2.016c0.009-0.271,0.014-0.658,0.014-1.162c0-0.513-0.005-0.896-0.014-1.147
				c-0.019-0.859-0.212-1.528-0.581-2.01c-0.369-0.48-0.908-0.721-1.617-0.721s-1.246,0.24-1.61,0.721
				c-0.364,0.481-0.555,1.15-0.574,2.01l-0.014,1.147l0.014,1.162c0.019,0.868,0.21,1.54,0.574,2.016
				c0.364,0.477,0.9,0.714,1.61,0.714C346.924,46.476,347.466,46.238,347.83,45.762z"/>
			<path fill="#E74C3C" d="M352.429,46.581c-0.556-0.705-0.852-1.626-0.889-2.765l-0.014-1.204l0.014-1.246
				c0.028-1.129,0.324-2.046,0.889-2.751c0.564-0.705,1.444-1.058,2.639-1.058c1.204,0,2.088,0.353,2.653,1.058
				c0.564,0.705,0.861,1.622,0.889,2.751c0.009,0.262,0.014,0.677,0.014,1.246c0,0.551-0.005,0.952-0.014,1.204
				c-0.037,1.139-0.333,2.06-0.889,2.765c-0.556,0.705-1.44,1.057-2.653,1.057C353.864,47.638,352.984,47.286,352.429,46.581z
				 M356.691,45.762c0.364-0.476,0.555-1.147,0.574-2.016c0.009-0.271,0.014-0.658,0.014-1.162c0-0.513-0.005-0.896-0.014-1.147
				c-0.019-0.859-0.212-1.528-0.581-2.01c-0.369-0.48-0.908-0.721-1.617-0.721s-1.246,0.24-1.61,0.721
				c-0.364,0.481-0.555,1.15-0.574,2.01l-0.014,1.147l0.014,1.162c0.019,0.868,0.21,1.54,0.574,2.016
				c0.364,0.477,0.9,0.714,1.61,0.714C355.786,46.476,356.328,46.238,356.691,45.762z"/>
			<path fill="#E74C3C" d="M360.36,40.141c-0.038-0.051-0.051-0.123-0.042-0.217l0.308-1.96c0.037-0.271,0.168-0.406,0.392-0.406
				h0.896c0.065,0,0.119,0.023,0.161,0.07s0.063,0.103,0.063,0.168c0,0.094-0.014,0.168-0.042,0.225l-0.728,1.89
				c-0.046,0.103-0.098,0.18-0.154,0.23c-0.056,0.052-0.14,0.077-0.252,0.077h-0.434C360.453,40.218,360.397,40.192,360.36,40.141z"
				/>
			<path fill="#E74C3C" d="M367.261,50.319c-0.056-0.062-0.084-0.138-0.084-0.231V35.276c0-0.094,0.028-0.171,0.084-0.231
				c0.056-0.061,0.131-0.091,0.224-0.091h0.518c0.093,0,0.17,0.03,0.231,0.091s0.091,0.138,0.091,0.231v14.812
				c0,0.094-0.031,0.17-0.091,0.231c-0.061,0.061-0.138,0.091-0.231,0.091h-0.518C367.392,50.41,367.317,50.38,367.261,50.319z"/>
			<path fill="#E74C3C" d="M376.445,47.407c-0.056-0.061-0.084-0.138-0.084-0.231V39.28l-2.352,1.806
				c-0.065,0.056-0.136,0.084-0.21,0.084c-0.084,0-0.164-0.047-0.238-0.14l-0.336-0.435c-0.047-0.064-0.07-0.13-0.07-0.195
				c0-0.103,0.046-0.187,0.14-0.252l3.038-2.353c0.103-0.065,0.224-0.098,0.364-0.098h0.658c0.093,0,0.17,0.03,0.231,0.091
				c0.061,0.061,0.091,0.138,0.091,0.231v9.155c0,0.094-0.03,0.171-0.091,0.231c-0.061,0.061-0.138,0.091-0.231,0.091h-0.686
				C376.576,47.498,376.501,47.468,376.445,47.407z"/>
			<path fill="#E74C3C" d="M379.532,47.407c-0.061-0.061-0.091-0.138-0.091-0.231v-0.42c0-0.215,0.117-0.42,0.35-0.616l3.052-3.038
				c0.691-0.588,1.167-1.068,1.428-1.441c0.261-0.373,0.392-0.771,0.392-1.19c0-0.55-0.154-0.981-0.462-1.295
				c-0.308-0.312-0.756-0.469-1.344-0.469c-0.56,0-1.003,0.163-1.33,0.49c-0.327,0.326-0.527,0.766-0.602,1.315
				c-0.019,0.104-0.065,0.183-0.14,0.238s-0.149,0.084-0.224,0.084h-0.672c-0.084,0-0.154-0.028-0.21-0.084
				c-0.056-0.056-0.084-0.121-0.084-0.196c0.019-0.494,0.152-0.973,0.399-1.435c0.248-0.462,0.614-0.84,1.099-1.134
				s1.073-0.441,1.764-0.441c1.045,0,1.832,0.273,2.359,0.819s0.791,1.238,0.791,2.079c0,0.588-0.143,1.117-0.427,1.589
				c-0.285,0.472-0.73,0.968-1.337,1.491l-2.758,2.8h4.41c0.103,0,0.182,0.027,0.238,0.084c0.056,0.056,0.084,0.135,0.084,0.238
				v0.531c0,0.094-0.03,0.171-0.091,0.231c-0.061,0.061-0.138,0.091-0.231,0.091h-6.132
				C379.669,47.498,379.592,47.468,379.532,47.407z"/>
			<path fill="#E74C3C" d="M390.571,47.407c-0.056-0.061-0.084-0.138-0.084-0.231V39.28l-2.352,1.806
				c-0.065,0.056-0.136,0.084-0.21,0.084c-0.084,0-0.164-0.047-0.238-0.14l-0.336-0.435c-0.047-0.064-0.07-0.13-0.07-0.195
				c0-0.103,0.046-0.187,0.14-0.252l3.038-2.353c0.103-0.065,0.224-0.098,0.364-0.098h0.658c0.093,0,0.17,0.03,0.231,0.091
				c0.061,0.061,0.091,0.138,0.091,0.231v9.155c0,0.094-0.03,0.171-0.091,0.231c-0.061,0.061-0.138,0.091-0.231,0.091h-0.686
				C390.701,47.498,390.626,47.468,390.571,47.407z"/>
			<path fill="#E74C3C" d="M393.924,47.407c-0.061-0.061-0.091-0.138-0.091-0.231V46.21c0-0.093,0.03-0.173,0.091-0.238
				c0.061-0.064,0.138-0.098,0.231-0.098h0.966c0.093,0,0.17,0.033,0.231,0.098c0.061,0.065,0.091,0.146,0.091,0.238v0.966
				c0,0.094-0.03,0.171-0.091,0.231c-0.061,0.061-0.138,0.091-0.231,0.091h-0.966C394.062,47.498,393.984,47.468,393.924,47.407z"/>
			<path fill="#E74C3C" d="M398.264,47.407c-0.052-0.061-0.077-0.133-0.077-0.217c0-0.065,0.019-0.126,0.056-0.183l2.156-2.996
				c-0.224,0.057-0.485,0.084-0.784,0.084c-0.672-0.009-1.26-0.165-1.764-0.469c-0.504-0.303-0.889-0.7-1.155-1.189
				c-0.266-0.49-0.399-1.016-0.399-1.575c0-0.561,0.133-1.092,0.399-1.597c0.266-0.504,0.663-0.914,1.19-1.231
				s1.165-0.477,1.911-0.477s1.386,0.154,1.918,0.463c0.532,0.308,0.933,0.711,1.204,1.211c0.271,0.499,0.406,1.033,0.406,1.603
				c0,0.514-0.091,0.966-0.273,1.358c-0.182,0.392-0.422,0.798-0.721,1.218l-2.716,3.808c-0.065,0.084-0.128,0.152-0.189,0.203
				c-0.061,0.052-0.147,0.077-0.259,0.077h-0.7C398.382,47.498,398.314,47.468,398.264,47.407z M400.902,42.724
				c0.336-0.177,0.602-0.427,0.798-0.749c0.196-0.321,0.294-0.692,0.294-1.112c0-0.43-0.098-0.808-0.294-1.134
				c-0.196-0.327-0.462-0.579-0.798-0.757c-0.336-0.177-0.705-0.266-1.106-0.266c-0.392,0-0.754,0.089-1.085,0.266
				c-0.332,0.178-0.595,0.43-0.791,0.757c-0.196,0.326-0.294,0.704-0.294,1.134c0,0.42,0.098,0.791,0.294,1.112
				c0.196,0.322,0.457,0.572,0.784,0.749c0.327,0.178,0.69,0.267,1.092,0.267S400.566,42.901,400.902,42.724z"/>
			<path fill="#E74C3C" d="M404.801,47.407c-0.061-0.061-0.091-0.138-0.091-0.231v-0.42c0-0.215,0.117-0.42,0.35-0.616l3.052-3.038
				c0.691-0.588,1.167-1.068,1.428-1.441c0.261-0.373,0.392-0.771,0.392-1.19c0-0.55-0.154-0.981-0.462-1.295
				c-0.308-0.312-0.756-0.469-1.344-0.469c-0.56,0-1.003,0.163-1.33,0.49c-0.327,0.326-0.527,0.766-0.602,1.315
				c-0.019,0.104-0.065,0.183-0.14,0.238s-0.149,0.084-0.224,0.084h-0.672c-0.084,0-0.154-0.028-0.21-0.084
				c-0.056-0.056-0.084-0.121-0.084-0.196c0.019-0.494,0.152-0.973,0.399-1.435c0.248-0.462,0.614-0.84,1.099-1.134
				s1.073-0.441,1.764-0.441c1.045,0,1.832,0.273,2.359,0.819s0.791,1.238,0.791,2.079c0,0.588-0.143,1.117-0.427,1.589
				c-0.285,0.472-0.73,0.968-1.337,1.491l-2.758,2.8h4.41c0.103,0,0.182,0.027,0.238,0.084c0.056,0.056,0.084,0.135,0.084,0.238
				v0.531c0,0.094-0.03,0.171-0.091,0.231c-0.061,0.061-0.138,0.091-0.231,0.091h-6.132
				C404.939,47.498,404.862,47.468,404.801,47.407z"/>
			<path fill="#E74C3C" d="M416.786,47.407c-0.061-0.061-0.091-0.138-0.091-0.231V40.54c0-0.093,0.03-0.17,0.091-0.231
				c0.061-0.061,0.138-0.091,0.231-0.091h0.588c0.093,0,0.168,0.03,0.224,0.091c0.056,0.062,0.084,0.139,0.084,0.231v0.476
				c0.504-0.625,1.185-0.938,2.044-0.938c1.026,0,1.754,0.43,2.184,1.288c0.224-0.393,0.543-0.705,0.959-0.938
				c0.415-0.232,0.879-0.35,1.393-0.35c0.765,0,1.391,0.262,1.876,0.784c0.485,0.522,0.728,1.278,0.728,2.268v4.046
				c0,0.094-0.031,0.171-0.091,0.231s-0.138,0.091-0.231,0.091h-0.602c-0.093,0-0.17-0.03-0.231-0.091s-0.091-0.138-0.091-0.231
				v-3.92c0-0.746-0.154-1.281-0.462-1.603c-0.308-0.322-0.714-0.483-1.218-0.483c-0.448,0-0.833,0.166-1.155,0.497
				c-0.322,0.331-0.483,0.861-0.483,1.589v3.92c0,0.094-0.031,0.171-0.091,0.231s-0.138,0.091-0.231,0.091h-0.616
				c-0.094,0-0.17-0.03-0.231-0.091c-0.061-0.061-0.091-0.138-0.091-0.231v-3.92c0-0.737-0.161-1.269-0.483-1.596
				s-0.721-0.49-1.197-0.49c-0.448,0-0.833,0.163-1.155,0.49c-0.322,0.327-0.483,0.854-0.483,1.582v3.934
				c0,0.094-0.03,0.171-0.091,0.231c-0.061,0.061-0.138,0.091-0.231,0.091h-0.616C416.923,47.498,416.846,47.468,416.786,47.407z"/>
			<path fill="#E74C3C" d="M351.309,65.007c-0.061-0.061-0.091-0.138-0.091-0.231V58.14c0-0.093,0.03-0.17,0.091-0.231
				c0.061-0.061,0.138-0.091,0.231-0.091h0.588c0.093,0,0.168,0.03,0.224,0.091c0.056,0.062,0.084,0.139,0.084,0.231v0.476
				c0.504-0.625,1.185-0.938,2.044-0.938c1.026,0,1.754,0.43,2.184,1.288c0.224-0.393,0.543-0.705,0.959-0.938
				c0.415-0.232,0.879-0.35,1.393-0.35c0.765,0,1.391,0.262,1.876,0.784c0.485,0.522,0.728,1.278,0.728,2.268v4.046
				c0,0.094-0.031,0.171-0.091,0.231s-0.138,0.091-0.231,0.091h-0.602c-0.093,0-0.17-0.03-0.231-0.091s-0.091-0.138-0.091-0.231
				v-3.92c0-0.746-0.154-1.281-0.462-1.603c-0.308-0.322-0.714-0.483-1.218-0.483c-0.448,0-0.833,0.166-1.155,0.497
				c-0.322,0.331-0.483,0.861-0.483,1.589v3.92c0,0.094-0.031,0.171-0.091,0.231s-0.138,0.091-0.231,0.091h-0.616
				c-0.094,0-0.17-0.03-0.231-0.091c-0.061-0.061-0.091-0.138-0.091-0.231v-3.92c0-0.737-0.161-1.269-0.483-1.596
				s-0.721-0.49-1.197-0.49c-0.448,0-0.833,0.163-1.155,0.49c-0.322,0.327-0.483,0.854-0.483,1.582v3.934
				c0,0.094-0.03,0.171-0.091,0.231c-0.061,0.061-0.138,0.091-0.231,0.091h-0.616C351.446,65.098,351.369,65.067,351.309,65.007z"/>
			<path fill="#E74C3C" d="M363.628,56.354c-0.061-0.061-0.091-0.138-0.091-0.23v-0.729c0-0.093,0.03-0.173,0.091-0.238
				c0.061-0.064,0.138-0.098,0.231-0.098h0.826c0.093,0,0.173,0.033,0.238,0.098c0.065,0.065,0.098,0.146,0.098,0.238v0.729
				c0,0.093-0.033,0.17-0.098,0.23c-0.065,0.061-0.145,0.091-0.238,0.091h-0.826C363.766,56.445,363.688,56.415,363.628,56.354z
				 M363.74,65.007c-0.061-0.061-0.091-0.138-0.091-0.231V58.14c0-0.093,0.03-0.17,0.091-0.231c0.061-0.061,0.138-0.091,0.231-0.091
				h0.616c0.093,0,0.17,0.03,0.231,0.091c0.061,0.062,0.091,0.139,0.091,0.231v6.636c0,0.094-0.03,0.171-0.091,0.231
				c-0.061,0.061-0.138,0.091-0.231,0.091h-0.616C363.878,65.098,363.801,65.067,363.74,65.007z"/>
			<path fill="#E74C3C" d="M367.1,65.007c-0.061-0.061-0.091-0.138-0.091-0.231V58.14c0-0.093,0.03-0.17,0.091-0.231
				c0.061-0.061,0.138-0.091,0.231-0.091h0.602c0.103,0,0.182,0.028,0.238,0.084c0.056,0.057,0.084,0.136,0.084,0.238v0.616
				c0.28-0.346,0.604-0.611,0.973-0.798s0.828-0.28,1.379-0.28c0.896,0,1.591,0.287,2.086,0.861
				c0.495,0.573,0.742,1.332,0.742,2.274v3.962c0,0.094-0.03,0.171-0.091,0.231c-0.061,0.061-0.138,0.091-0.231,0.091h-0.644
				c-0.093,0-0.17-0.03-0.231-0.091s-0.091-0.138-0.091-0.231v-3.878c0-0.672-0.164-1.194-0.49-1.567
				c-0.327-0.374-0.793-0.561-1.4-0.561c-0.597,0-1.073,0.189-1.428,0.567c-0.355,0.378-0.532,0.898-0.532,1.561v3.878
				c0,0.094-0.03,0.171-0.091,0.231c-0.061,0.061-0.138,0.091-0.231,0.091h-0.644C367.238,65.098,367.161,65.067,367.1,65.007z"/>
			<path fill="#E74C3C" d="M375.444,56.354c-0.061-0.061-0.091-0.138-0.091-0.23v-0.729c0-0.093,0.03-0.173,0.091-0.238
				c0.061-0.064,0.138-0.098,0.231-0.098h0.826c0.093,0,0.173,0.033,0.238,0.098c0.065,0.065,0.098,0.146,0.098,0.238v0.729
				c0,0.093-0.033,0.17-0.098,0.23c-0.065,0.061-0.145,0.091-0.238,0.091h-0.826C375.582,56.445,375.504,56.415,375.444,56.354z
				 M375.556,65.007c-0.061-0.061-0.091-0.138-0.091-0.231V58.14c0-0.093,0.03-0.17,0.091-0.231
				c0.061-0.061,0.138-0.091,0.231-0.091h0.616c0.093,0,0.17,0.03,0.231,0.091c0.061,0.062,0.091,0.139,0.091,0.231v6.636
				c0,0.094-0.03,0.171-0.091,0.231c-0.061,0.061-0.138,0.091-0.231,0.091h-0.616C375.694,65.098,375.617,65.067,375.556,65.007z"/>
			<path fill="#E74C3C" d="M378.916,65.007c-0.061-0.061-0.091-0.138-0.091-0.231V58.14c0-0.093,0.03-0.17,0.091-0.231
				c0.061-0.061,0.138-0.091,0.231-0.091h0.588c0.093,0,0.168,0.03,0.224,0.091c0.056,0.062,0.084,0.139,0.084,0.231v0.476
				c0.504-0.625,1.185-0.938,2.044-0.938c1.026,0,1.754,0.43,2.184,1.288c0.224-0.393,0.543-0.705,0.959-0.938
				c0.415-0.232,0.879-0.35,1.393-0.35c0.765,0,1.391,0.262,1.876,0.784c0.485,0.522,0.728,1.278,0.728,2.268v4.046
				c0,0.094-0.031,0.171-0.091,0.231s-0.138,0.091-0.231,0.091h-0.602c-0.093,0-0.17-0.03-0.231-0.091s-0.091-0.138-0.091-0.231
				v-3.92c0-0.746-0.154-1.281-0.462-1.603c-0.308-0.322-0.714-0.483-1.218-0.483c-0.448,0-0.833,0.166-1.155,0.497
				c-0.322,0.331-0.483,0.861-0.483,1.589v3.92c0,0.094-0.031,0.171-0.091,0.231s-0.138,0.091-0.231,0.091h-0.616
				c-0.094,0-0.17-0.03-0.231-0.091c-0.061-0.061-0.091-0.138-0.091-0.231v-3.92c0-0.737-0.161-1.269-0.483-1.596
				s-0.721-0.49-1.197-0.49c-0.448,0-0.833,0.163-1.155,0.49c-0.322,0.327-0.483,0.854-0.483,1.582v3.934
				c0,0.094-0.03,0.171-0.091,0.231c-0.061,0.061-0.138,0.091-0.231,0.091h-0.616C379.054,65.098,378.977,65.067,378.916,65.007z"/>
			<path fill="#E74C3C" d="M391.915,64.377c-0.485-0.574-0.728-1.337-0.728-2.289V58.14c0-0.093,0.03-0.17,0.091-0.231
				c0.061-0.061,0.138-0.091,0.231-0.091h0.644c0.093,0,0.17,0.03,0.231,0.091c0.061,0.062,0.091,0.139,0.091,0.231v3.878
				c0,1.419,0.616,2.128,1.848,2.128c0.597,0,1.071-0.188,1.421-0.566c0.35-0.379,0.525-0.898,0.525-1.562V58.14
				c0-0.093,0.03-0.17,0.091-0.231c0.061-0.061,0.138-0.091,0.231-0.091h0.644c0.093,0,0.17,0.03,0.231,0.091
				c0.061,0.062,0.091,0.139,0.091,0.231v6.636c0,0.094-0.03,0.171-0.091,0.231c-0.061,0.061-0.138,0.091-0.231,0.091h-0.602
				c-0.093,0-0.17-0.03-0.231-0.091s-0.091-0.138-0.091-0.231v-0.63c-0.271,0.364-0.588,0.637-0.952,0.819
				c-0.364,0.182-0.826,0.272-1.386,0.272C393.086,65.237,392.4,64.95,391.915,64.377z"/>
			<path fill="#E74C3C" d="M399.748,65.007c-0.061-0.061-0.091-0.138-0.091-0.231V58.14c0-0.093,0.03-0.17,0.091-0.231
				c0.061-0.061,0.138-0.091,0.231-0.091h0.588c0.093,0,0.168,0.03,0.224,0.091c0.056,0.062,0.084,0.139,0.084,0.231v0.476
				c0.504-0.625,1.185-0.938,2.044-0.938c1.026,0,1.754,0.43,2.184,1.288c0.224-0.393,0.543-0.705,0.959-0.938
				c0.415-0.232,0.879-0.35,1.393-0.35c0.765,0,1.391,0.262,1.876,0.784c0.485,0.522,0.728,1.278,0.728,2.268v4.046
				c0,0.094-0.031,0.171-0.091,0.231s-0.138,0.091-0.231,0.091h-0.602c-0.093,0-0.17-0.03-0.231-0.091s-0.091-0.138-0.091-0.231
				v-3.92c0-0.746-0.154-1.281-0.462-1.603c-0.308-0.322-0.714-0.483-1.218-0.483c-0.448,0-0.833,0.166-1.155,0.497
				c-0.322,0.331-0.483,0.861-0.483,1.589v3.92c0,0.094-0.031,0.171-0.091,0.231s-0.138,0.091-0.231,0.091h-0.616
				c-0.094,0-0.17-0.03-0.231-0.091c-0.061-0.061-0.091-0.138-0.091-0.231v-3.92c0-0.737-0.161-1.269-0.483-1.596
				s-0.721-0.49-1.197-0.49c-0.448,0-0.833,0.163-1.155,0.49c-0.322,0.327-0.483,0.854-0.483,1.582v3.934
				c0,0.094-0.03,0.171-0.091,0.231c-0.061,0.061-0.138,0.091-0.231,0.091h-0.616C399.885,65.098,399.808,65.067,399.748,65.007z"/>
		</g>
	</g>
	<g display="inline">
		<g>
			<path fill="#E74C3C" d="M33.857,169.281c-0.532-0.238-0.936-0.549-1.211-0.932c-0.275-0.382-0.422-0.778-0.441-1.189
				c0-0.084,0.028-0.151,0.084-0.203c0.056-0.051,0.126-0.077,0.21-0.077h0.63c0.103,0,0.187,0.021,0.252,0.063
				s0.117,0.123,0.154,0.245c0.121,0.476,0.385,0.812,0.791,1.008c0.406,0.195,0.884,0.294,1.435,0.294
				c0.672,0,1.206-0.161,1.603-0.483c0.396-0.322,0.595-0.781,0.595-1.379c0-1.139-0.695-1.708-2.086-1.708h-1.316
				c-0.094,0-0.17-0.03-0.231-0.091c-0.061-0.061-0.091-0.138-0.091-0.231v-0.363c0-0.141,0.051-0.262,0.154-0.364l2.73-3.024
				h-4.144c-0.093,0-0.17-0.027-0.231-0.084c-0.061-0.056-0.091-0.13-0.091-0.224v-0.504c0-0.103,0.03-0.185,0.091-0.245
				c0.061-0.061,0.138-0.091,0.231-0.091h5.544c0.103,0,0.184,0.03,0.245,0.091c0.061,0.061,0.091,0.143,0.091,0.245v0.462
				c0,0.103-0.047,0.21-0.14,0.322l-2.73,3.065h0.224c0.952,0.028,1.706,0.275,2.261,0.742c0.555,0.467,0.833,1.148,0.833,2.044
				c0,0.616-0.152,1.146-0.455,1.589c-0.304,0.443-0.726,0.784-1.267,1.022c-0.542,0.238-1.153,0.356-1.834,0.356
				C35.019,169.638,34.389,169.52,33.857,169.281z"/>
			<path fill="#E74C3C" d="M40.752,169.407c-0.061-0.061-0.091-0.138-0.091-0.231v-0.42c0-0.215,0.117-0.42,0.35-0.616l3.052-3.038
				c0.691-0.588,1.167-1.068,1.428-1.441c0.261-0.373,0.392-0.771,0.392-1.19c0-0.55-0.154-0.981-0.462-1.295
				c-0.308-0.312-0.756-0.469-1.344-0.469c-0.56,0-1.003,0.163-1.33,0.49c-0.327,0.326-0.527,0.766-0.602,1.315
				c-0.019,0.104-0.065,0.183-0.14,0.238s-0.149,0.084-0.224,0.084h-0.672c-0.084,0-0.154-0.028-0.21-0.084
				c-0.056-0.056-0.084-0.121-0.084-0.196c0.019-0.494,0.152-0.973,0.399-1.435c0.248-0.462,0.614-0.84,1.099-1.134
				s1.073-0.441,1.764-0.441c1.045,0,1.832,0.273,2.359,0.819s0.791,1.238,0.791,2.079c0,0.588-0.143,1.117-0.427,1.589
				c-0.285,0.472-0.73,0.968-1.337,1.491l-2.758,2.8h4.41c0.103,0,0.182,0.027,0.238,0.084c0.056,0.056,0.084,0.135,0.084,0.238
				v0.531c0,0.094-0.03,0.171-0.091,0.231c-0.061,0.061-0.138,0.091-0.231,0.091h-6.132
				C40.89,169.498,40.812,169.468,40.752,169.407z"/>
			<path fill="#E74C3C" d="M49.936,168.581c-0.556-0.705-0.852-1.626-0.889-2.765l-0.014-1.204l0.014-1.246
				c0.028-1.129,0.324-2.046,0.889-2.751c0.564-0.705,1.444-1.058,2.639-1.058c1.204,0,2.088,0.353,2.653,1.058
				c0.564,0.705,0.861,1.622,0.889,2.751c0.009,0.262,0.014,0.677,0.014,1.246c0,0.551-0.005,0.952-0.014,1.204
				c-0.037,1.139-0.333,2.06-0.889,2.765c-0.556,0.705-1.44,1.057-2.653,1.057C51.371,169.638,50.491,169.286,49.936,168.581z
				 M54.199,167.762c0.364-0.476,0.555-1.147,0.574-2.016c0.009-0.271,0.014-0.658,0.014-1.162c0-0.513-0.005-0.896-0.014-1.147
				c-0.019-0.859-0.212-1.528-0.581-2.01c-0.369-0.48-0.908-0.721-1.617-0.721s-1.246,0.24-1.61,0.721
				c-0.364,0.481-0.555,1.15-0.574,2.01l-0.014,1.147l0.014,1.162c0.019,0.868,0.21,1.54,0.574,2.016
				c0.364,0.477,0.9,0.714,1.61,0.714C53.293,168.476,53.835,168.238,54.199,167.762z"/>
			<path fill="#E74C3C" d="M57.867,162.141c-0.038-0.051-0.051-0.123-0.042-0.217l0.308-1.96c0.037-0.271,0.168-0.406,0.392-0.406
				h0.896c0.065,0,0.119,0.023,0.161,0.07s0.063,0.103,0.063,0.168c0,0.094-0.014,0.168-0.042,0.225l-0.728,1.89
				c-0.046,0.103-0.098,0.18-0.154,0.23c-0.056,0.052-0.14,0.077-0.252,0.077h-0.434C57.96,162.218,57.904,162.192,57.867,162.141z"
				/>
			<path fill="#E74C3C" d="M60.17,165.774c-0.061-0.057-0.091-0.131-0.091-0.225v-0.504c0-0.093,0.03-0.17,0.091-0.23
				c0.061-0.061,0.138-0.092,0.231-0.092h4.2c0.093,0,0.17,0.031,0.231,0.092c0.061,0.061,0.091,0.138,0.091,0.23v0.504
				c0,0.094-0.03,0.168-0.091,0.225c-0.061,0.056-0.138,0.084-0.231,0.084h-4.2C60.308,165.858,60.23,165.83,60.17,165.774z"/>
			<path fill="#E74C3C" d="M67.835,169.281c-0.532-0.238-0.936-0.549-1.211-0.932c-0.275-0.382-0.422-0.778-0.441-1.189
				c0-0.084,0.028-0.151,0.084-0.203c0.056-0.051,0.126-0.077,0.21-0.077h0.63c0.103,0,0.187,0.021,0.252,0.063
				s0.117,0.123,0.154,0.245c0.121,0.476,0.385,0.812,0.791,1.008c0.406,0.195,0.884,0.294,1.435,0.294
				c0.672,0,1.206-0.161,1.603-0.483c0.396-0.322,0.595-0.781,0.595-1.379c0-1.139-0.695-1.708-2.086-1.708h-1.316
				c-0.094,0-0.17-0.03-0.231-0.091c-0.061-0.061-0.091-0.138-0.091-0.231v-0.363c0-0.141,0.051-0.262,0.154-0.364l2.73-3.024
				h-4.144c-0.093,0-0.17-0.027-0.231-0.084c-0.061-0.056-0.091-0.13-0.091-0.224v-0.504c0-0.103,0.03-0.185,0.091-0.245
				c0.061-0.061,0.138-0.091,0.231-0.091h5.544c0.103,0,0.184,0.03,0.245,0.091c0.061,0.061,0.091,0.143,0.091,0.245v0.462
				c0,0.103-0.047,0.21-0.14,0.322l-2.73,3.065h0.224c0.952,0.028,1.706,0.275,2.261,0.742c0.555,0.467,0.833,1.148,0.833,2.044
				c0,0.616-0.152,1.146-0.455,1.589c-0.304,0.443-0.726,0.784-1.267,1.022c-0.542,0.238-1.153,0.356-1.834,0.356
				C68.997,169.638,68.367,169.52,67.835,169.281z"/>
			<path fill="#E74C3C" d="M76.207,169.26c-0.513-0.252-0.905-0.581-1.176-0.986c-0.271-0.406-0.416-0.843-0.434-1.31v-0.027
				c0-0.075,0.028-0.136,0.084-0.183s0.121-0.07,0.196-0.07h0.686c0.196,0,0.322,0.104,0.378,0.309
				c0.14,0.504,0.399,0.88,0.777,1.127s0.814,0.371,1.309,0.371c0.634,0,1.162-0.193,1.582-0.581c0.42-0.388,0.63-0.922,0.63-1.604
				c0-0.625-0.21-1.122-0.63-1.49c-0.42-0.369-0.947-0.554-1.582-0.554c-0.336,0-0.607,0.042-0.812,0.126
				c-0.206,0.084-0.416,0.206-0.63,0.364c-0.121,0.094-0.222,0.161-0.301,0.203c-0.08,0.042-0.166,0.062-0.259,0.062h-0.672
				c-0.084,0-0.159-0.029-0.224-0.091c-0.065-0.061-0.093-0.133-0.084-0.217l0.434-4.662c0.028-0.233,0.145-0.35,0.35-0.35h4.844
				c0.103,0,0.182,0.027,0.238,0.084c0.056,0.056,0.084,0.135,0.084,0.238v0.518c0,0.094-0.03,0.168-0.091,0.224
				c-0.061,0.057-0.138,0.084-0.231,0.084h-4.032l-0.252,2.814c0.448-0.317,1.05-0.477,1.806-0.477c0.625,0,1.194,0.124,1.708,0.371
				c0.513,0.248,0.921,0.609,1.225,1.085c0.303,0.477,0.455,1.041,0.455,1.694c0,0.69-0.152,1.286-0.455,1.785
				s-0.723,0.877-1.26,1.134s-1.15,0.385-1.841,0.385C77.327,169.638,76.72,169.512,76.207,169.26z"/>
			<path fill="#E74C3C" d="M84.026,168.581c-0.556-0.705-0.852-1.626-0.889-2.765l-0.014-1.204l0.014-1.246
				c0.028-1.129,0.324-2.046,0.889-2.751c0.564-0.705,1.444-1.058,2.639-1.058c1.204,0,2.088,0.353,2.653,1.058
				c0.564,0.705,0.861,1.622,0.889,2.751c0.009,0.262,0.014,0.677,0.014,1.246c0,0.551-0.005,0.952-0.014,1.204
				c-0.037,1.139-0.333,2.06-0.889,2.765c-0.556,0.705-1.44,1.057-2.653,1.057C85.461,169.638,84.581,169.286,84.026,168.581z
				 M88.289,167.762c0.364-0.476,0.555-1.147,0.574-2.016c0.009-0.271,0.014-0.658,0.014-1.162c0-0.513-0.005-0.896-0.014-1.147
				c-0.019-0.859-0.212-1.528-0.581-2.01c-0.369-0.48-0.908-0.721-1.617-0.721s-1.246,0.24-1.61,0.721
				c-0.364,0.481-0.555,1.15-0.574,2.01l-0.014,1.147l0.014,1.162c0.019,0.868,0.21,1.54,0.574,2.016
				c0.364,0.477,0.9,0.714,1.61,0.714C87.383,168.476,87.925,168.238,88.289,167.762z"/>
			<path fill="#E74C3C" d="M91.957,162.141c-0.038-0.051-0.051-0.123-0.042-0.217l0.308-1.96c0.037-0.271,0.168-0.406,0.392-0.406
				h0.896c0.065,0,0.119,0.023,0.161,0.07s0.063,0.103,0.063,0.168c0,0.094-0.014,0.168-0.042,0.225l-0.728,1.89
				c-0.046,0.103-0.098,0.18-0.154,0.23c-0.056,0.052-0.14,0.077-0.252,0.077h-0.434C92.05,162.218,91.994,162.192,91.957,162.141z"
				/>
			<path fill="#E74C3C" d="M34.116,187.007c-0.052-0.061-0.077-0.133-0.077-0.217c0-0.065,0.019-0.126,0.056-0.183l2.156-2.996
				c-0.224,0.057-0.485,0.084-0.784,0.084c-0.672-0.009-1.26-0.165-1.764-0.469c-0.504-0.303-0.889-0.7-1.155-1.189
				c-0.266-0.49-0.399-1.016-0.399-1.575c0-0.561,0.133-1.092,0.399-1.597c0.266-0.504,0.663-0.914,1.19-1.231
				s1.165-0.477,1.911-0.477s1.386,0.154,1.918,0.463c0.532,0.308,0.933,0.711,1.204,1.211c0.271,0.499,0.406,1.033,0.406,1.603
				c0,0.514-0.091,0.966-0.273,1.358c-0.182,0.392-0.422,0.798-0.721,1.218l-2.716,3.808c-0.065,0.084-0.128,0.152-0.189,0.203
				c-0.061,0.052-0.147,0.077-0.259,0.077h-0.7C34.235,187.098,34.167,187.067,34.116,187.007z M36.755,182.323
				c0.336-0.177,0.602-0.427,0.798-0.749c0.196-0.321,0.294-0.692,0.294-1.112c0-0.43-0.098-0.808-0.294-1.134
				c-0.196-0.327-0.462-0.579-0.798-0.757c-0.336-0.177-0.705-0.266-1.106-0.266c-0.392,0-0.754,0.089-1.085,0.266
				c-0.332,0.178-0.595,0.43-0.791,0.757c-0.196,0.326-0.294,0.704-0.294,1.134c0,0.42,0.098,0.791,0.294,1.112
				c0.196,0.322,0.457,0.572,0.784,0.749c0.327,0.178,0.69,0.267,1.092,0.267S36.419,182.501,36.755,182.323z"/>
			<path fill="#E74C3C" d="M41.774,187.007c-0.051-0.061-0.077-0.133-0.077-0.217l0.028-0.126l3.5-8.19h-4.62
				c-0.093,0-0.17-0.03-0.231-0.091c-0.061-0.061-0.091-0.138-0.091-0.231v-0.518c0-0.103,0.028-0.185,0.084-0.245
				c0.056-0.061,0.135-0.091,0.238-0.091h5.712c0.103,0,0.182,0.03,0.238,0.091c0.056,0.061,0.084,0.143,0.084,0.245v0.476
				c0,0.168-0.038,0.351-0.112,0.546l-3.458,8.093c-0.047,0.103-0.098,0.187-0.154,0.252s-0.135,0.098-0.238,0.098h-0.7
				C41.893,187.098,41.825,187.067,41.774,187.007z"/>
			<path fill="#E74C3C" d="M47.136,187.007c-0.061-0.061-0.091-0.138-0.091-0.231v-0.966c0-0.093,0.03-0.173,0.091-0.238
				c0.061-0.064,0.138-0.098,0.231-0.098h0.966c0.093,0,0.17,0.033,0.231,0.098c0.061,0.065,0.091,0.146,0.091,0.238v0.966
				c0,0.094-0.03,0.171-0.091,0.231c-0.061,0.061-0.138,0.091-0.231,0.091h-0.966C47.273,187.098,47.196,187.067,47.136,187.007z"/>
			<path fill="#E74C3C" d="M51.847,186.859c-0.513-0.252-0.905-0.581-1.176-0.986c-0.271-0.406-0.416-0.843-0.434-1.31v-0.027
				c0-0.075,0.028-0.136,0.084-0.183s0.121-0.07,0.196-0.07h0.686c0.196,0,0.322,0.104,0.378,0.309
				c0.14,0.504,0.399,0.88,0.777,1.127s0.814,0.371,1.309,0.371c0.634,0,1.162-0.193,1.582-0.581c0.42-0.388,0.63-0.922,0.63-1.604
				c0-0.625-0.21-1.122-0.63-1.49c-0.42-0.369-0.947-0.554-1.582-0.554c-0.336,0-0.607,0.042-0.812,0.126
				c-0.206,0.084-0.416,0.206-0.63,0.364c-0.121,0.094-0.222,0.161-0.301,0.203c-0.08,0.042-0.166,0.062-0.259,0.062h-0.672
				c-0.084,0-0.159-0.029-0.224-0.091c-0.065-0.061-0.093-0.133-0.084-0.217l0.434-4.662c0.028-0.233,0.145-0.35,0.35-0.35h4.844
				c0.103,0,0.182,0.027,0.238,0.084c0.056,0.056,0.084,0.135,0.084,0.238v0.518c0,0.094-0.03,0.168-0.091,0.224
				c-0.061,0.057-0.138,0.084-0.231,0.084h-4.032l-0.252,2.814c0.448-0.317,1.05-0.477,1.806-0.477c0.625,0,1.194,0.124,1.708,0.371
				c0.513,0.248,0.921,0.609,1.225,1.085c0.303,0.477,0.455,1.041,0.455,1.694c0,0.69-0.152,1.286-0.455,1.785
				s-0.723,0.877-1.26,1.134s-1.15,0.385-1.841,0.385C52.967,187.237,52.36,187.111,51.847,186.859z"/>
			<path fill="#E74C3C" d="M58.938,183.374c-0.061-0.057-0.091-0.131-0.091-0.225v-0.504c0-0.093,0.03-0.17,0.091-0.23
				c0.061-0.061,0.138-0.092,0.231-0.092h4.2c0.093,0,0.17,0.031,0.231,0.092c0.061,0.061,0.091,0.138,0.091,0.23v0.504
				c0,0.094-0.03,0.168-0.091,0.225c-0.061,0.056-0.138,0.084-0.231,0.084h-4.2C59.076,183.458,58.999,183.43,58.938,183.374z"/>
			<path fill="#E74C3C" d="M67.779,187.007c-0.056-0.061-0.084-0.138-0.084-0.231v-7.896l-2.352,1.806
				c-0.065,0.056-0.136,0.084-0.21,0.084c-0.084,0-0.164-0.047-0.238-0.14l-0.336-0.435c-0.047-0.064-0.07-0.13-0.07-0.195
				c0-0.103,0.046-0.187,0.14-0.252l3.038-2.353c0.103-0.065,0.224-0.098,0.364-0.098h0.658c0.093,0,0.17,0.03,0.231,0.091
				c0.061,0.061,0.091,0.138,0.091,0.231v9.155c0,0.094-0.03,0.171-0.091,0.231c-0.061,0.061-0.138,0.091-0.231,0.091h-0.686
				C67.909,187.098,67.834,187.067,67.779,187.007z"/>
			<path fill="#E74C3C" d="M71.874,186.181c-0.556-0.705-0.852-1.626-0.889-2.765l-0.014-1.204l0.014-1.246
				c0.028-1.129,0.324-2.046,0.889-2.751c0.564-0.705,1.444-1.058,2.639-1.058c1.204,0,2.088,0.353,2.653,1.058
				c0.564,0.705,0.861,1.622,0.889,2.751c0.009,0.262,0.014,0.677,0.014,1.246c0,0.551-0.005,0.952-0.014,1.204
				c-0.037,1.139-0.333,2.06-0.889,2.765c-0.556,0.705-1.44,1.057-2.653,1.057C73.309,187.237,72.429,186.886,71.874,186.181z
				 M76.137,185.361c0.364-0.476,0.555-1.147,0.574-2.016c0.009-0.271,0.014-0.658,0.014-1.162c0-0.513-0.005-0.896-0.014-1.147
				c-0.019-0.859-0.212-1.528-0.581-2.01c-0.369-0.48-0.908-0.721-1.617-0.721s-1.246,0.24-1.61,0.721
				c-0.364,0.481-0.555,1.15-0.574,2.01l-0.014,1.147l0.014,1.162c0.019,0.868,0.21,1.54,0.574,2.016
				c0.364,0.477,0.9,0.714,1.61,0.714C75.231,186.075,75.773,185.838,76.137,185.361z"/>
			<path fill="#E74C3C" d="M81.31,186.782c-0.546-0.303-0.961-0.711-1.246-1.225c-0.285-0.513-0.427-1.073-0.427-1.68
				c0-0.803,0.322-1.661,0.966-2.576l2.674-3.724c0.009-0.01,0.035-0.042,0.077-0.099c0.042-0.056,0.096-0.1,0.161-0.133
				c0.065-0.032,0.14-0.049,0.224-0.049h0.686c0.084,0,0.151,0.03,0.203,0.091s0.077,0.133,0.077,0.217
				c0,0.047-0.023,0.107-0.07,0.183l-2.044,2.855c0.243-0.056,0.513-0.084,0.812-0.084c0.681,0,1.281,0.152,1.799,0.455
				c0.518,0.304,0.919,0.705,1.204,1.204s0.427,1.048,0.427,1.645c0,0.598-0.142,1.155-0.427,1.674
				c-0.285,0.518-0.698,0.931-1.239,1.238c-0.541,0.309-1.181,0.462-1.918,0.462C82.502,187.237,81.855,187.086,81.31,186.782z
				 M84.369,185.823c0.345-0.168,0.621-0.417,0.826-0.749c0.205-0.331,0.308-0.729,0.308-1.196c0-0.457-0.105-0.852-0.315-1.184
				c-0.21-0.331-0.488-0.583-0.833-0.756s-0.719-0.259-1.12-0.259c-0.401,0-0.775,0.086-1.12,0.259
				c-0.346,0.173-0.621,0.425-0.826,0.756c-0.205,0.332-0.308,0.727-0.308,1.184c0,0.467,0.103,0.865,0.308,1.196
				c0.205,0.332,0.48,0.581,0.826,0.749c0.345,0.168,0.719,0.252,1.12,0.252C83.646,186.075,84.023,185.991,84.369,185.823z"/>
			<path fill="#E74C3C" d="M88.394,187.007c-0.061-0.061-0.091-0.138-0.091-0.231v-0.966c0-0.093,0.03-0.173,0.091-0.238
				c0.061-0.064,0.138-0.098,0.231-0.098h0.966c0.093,0,0.17,0.033,0.231,0.098c0.061,0.065,0.091,0.146,0.091,0.238v0.966
				c0,0.094-0.03,0.171-0.091,0.231c-0.061,0.061-0.138,0.091-0.231,0.091h-0.966C88.531,187.098,88.454,187.067,88.394,187.007z"/>
			<path fill="#E74C3C" d="M92.328,187.007c-0.051-0.061-0.077-0.133-0.077-0.217l0.028-0.126l3.5-8.19h-4.62
				c-0.093,0-0.17-0.03-0.231-0.091c-0.061-0.061-0.091-0.138-0.091-0.231v-0.518c0-0.103,0.028-0.185,0.084-0.245
				c0.056-0.061,0.135-0.091,0.238-0.091h5.712c0.103,0,0.182,0.03,0.238,0.091c0.056,0.061,0.084,0.143,0.084,0.245v0.476
				c0,0.168-0.038,0.351-0.112,0.546l-3.458,8.093c-0.047,0.103-0.098,0.187-0.154,0.252s-0.135,0.098-0.238,0.098h-0.7
				C92.447,187.098,92.379,187.067,92.328,187.007z"/>
			<path fill="#E74C3C" d="M102.155,187.007c-0.061-0.061-0.091-0.138-0.091-0.231v-6.636c0-0.093,0.03-0.17,0.091-0.231
				c0.061-0.061,0.138-0.091,0.231-0.091h0.588c0.093,0,0.168,0.03,0.224,0.091c0.056,0.062,0.084,0.139,0.084,0.231v0.476
				c0.504-0.625,1.185-0.938,2.044-0.938c1.026,0,1.754,0.43,2.184,1.288c0.224-0.393,0.543-0.705,0.959-0.938
				c0.415-0.232,0.879-0.35,1.393-0.35c0.765,0,1.391,0.262,1.876,0.784c0.485,0.522,0.728,1.278,0.728,2.268v4.046
				c0,0.094-0.031,0.171-0.091,0.231s-0.138,0.091-0.231,0.091h-0.602c-0.093,0-0.17-0.03-0.231-0.091s-0.091-0.138-0.091-0.231
				v-3.92c0-0.746-0.154-1.281-0.462-1.603c-0.308-0.322-0.714-0.483-1.218-0.483c-0.448,0-0.833,0.166-1.155,0.497
				c-0.322,0.331-0.483,0.861-0.483,1.589v3.92c0,0.094-0.031,0.171-0.091,0.231s-0.138,0.091-0.231,0.091h-0.616
				c-0.094,0-0.17-0.03-0.231-0.091c-0.061-0.061-0.091-0.138-0.091-0.231v-3.92c0-0.737-0.161-1.269-0.483-1.596
				s-0.721-0.49-1.197-0.49c-0.448,0-0.833,0.163-1.155,0.49c-0.322,0.327-0.483,0.854-0.483,1.582v3.934
				c0,0.094-0.03,0.171-0.091,0.231c-0.061,0.061-0.138,0.091-0.231,0.091h-0.616C102.293,187.098,102.216,187.067,102.155,187.007z
				"/>
			<path fill="#E74C3C" d="M32.744,204.607c-0.061-0.061-0.091-0.138-0.091-0.231v-6.636c0-0.093,0.03-0.17,0.091-0.231
				c0.061-0.061,0.138-0.091,0.231-0.091h0.588c0.093,0,0.168,0.03,0.224,0.091c0.056,0.062,0.084,0.139,0.084,0.231v0.476
				c0.504-0.625,1.185-0.938,2.044-0.938c1.026,0,1.754,0.43,2.184,1.288c0.224-0.393,0.543-0.705,0.959-0.938
				c0.415-0.232,0.879-0.35,1.393-0.35c0.765,0,1.391,0.262,1.876,0.784c0.485,0.522,0.728,1.278,0.728,2.268v4.046
				c0,0.094-0.031,0.171-0.091,0.231s-0.138,0.091-0.231,0.091h-0.602c-0.093,0-0.17-0.03-0.231-0.091s-0.091-0.138-0.091-0.231
				v-3.92c0-0.746-0.154-1.281-0.462-1.603c-0.308-0.322-0.714-0.483-1.218-0.483c-0.448,0-0.833,0.166-1.155,0.497
				c-0.322,0.331-0.483,0.861-0.483,1.589v3.92c0,0.094-0.031,0.171-0.091,0.231s-0.138,0.091-0.231,0.091h-0.616
				c-0.094,0-0.17-0.03-0.231-0.091c-0.061-0.061-0.091-0.138-0.091-0.231v-3.92c0-0.737-0.161-1.269-0.483-1.596
				s-0.721-0.49-1.197-0.49c-0.448,0-0.833,0.163-1.155,0.49c-0.322,0.327-0.483,0.854-0.483,1.582v3.934
				c0,0.094-0.03,0.171-0.091,0.231c-0.061,0.061-0.138,0.091-0.231,0.091h-0.616C32.882,204.698,32.805,204.668,32.744,204.607z"/>
			<path fill="#E74C3C" d="M45.063,195.955c-0.061-0.061-0.091-0.138-0.091-0.23v-0.729c0-0.093,0.03-0.173,0.091-0.238
				c0.061-0.064,0.138-0.098,0.231-0.098h0.826c0.093,0,0.173,0.033,0.238,0.098c0.065,0.065,0.098,0.146,0.098,0.238v0.729
				c0,0.093-0.033,0.17-0.098,0.23c-0.065,0.061-0.145,0.091-0.238,0.091h-0.826C45.201,196.046,45.124,196.016,45.063,195.955z
				 M45.176,204.607c-0.061-0.061-0.091-0.138-0.091-0.231v-6.636c0-0.093,0.03-0.17,0.091-0.231
				c0.061-0.061,0.138-0.091,0.231-0.091h0.616c0.093,0,0.17,0.03,0.231,0.091c0.061,0.062,0.091,0.139,0.091,0.231v6.636
				c0,0.094-0.03,0.171-0.091,0.231c-0.061,0.061-0.138,0.091-0.231,0.091h-0.616C45.313,204.698,45.236,204.668,45.176,204.607z"/>
			<path fill="#E74C3C" d="M48.536,204.607c-0.061-0.061-0.091-0.138-0.091-0.231v-6.636c0-0.093,0.03-0.17,0.091-0.231
				c0.061-0.061,0.138-0.091,0.231-0.091h0.602c0.103,0,0.182,0.028,0.238,0.084c0.056,0.057,0.084,0.136,0.084,0.238v0.616
				c0.28-0.346,0.604-0.611,0.973-0.798s0.828-0.28,1.379-0.28c0.896,0,1.591,0.287,2.086,0.861
				c0.495,0.573,0.742,1.332,0.742,2.274v3.962c0,0.094-0.03,0.171-0.091,0.231c-0.061,0.061-0.138,0.091-0.231,0.091h-0.644
				c-0.093,0-0.17-0.03-0.231-0.091s-0.091-0.138-0.091-0.231v-3.878c0-0.672-0.164-1.194-0.49-1.567
				c-0.327-0.374-0.793-0.561-1.4-0.561c-0.597,0-1.073,0.189-1.428,0.567c-0.355,0.378-0.532,0.898-0.532,1.561v3.878
				c0,0.094-0.03,0.171-0.091,0.231c-0.061,0.061-0.138,0.091-0.231,0.091h-0.644C48.673,204.698,48.596,204.668,48.536,204.607z"/>
			<path fill="#E74C3C" d="M56.879,195.955c-0.061-0.061-0.091-0.138-0.091-0.23v-0.729c0-0.093,0.03-0.173,0.091-0.238
				c0.061-0.064,0.138-0.098,0.231-0.098h0.826c0.093,0,0.173,0.033,0.238,0.098c0.065,0.065,0.098,0.146,0.098,0.238v0.729
				c0,0.093-0.033,0.17-0.098,0.23c-0.065,0.061-0.145,0.091-0.238,0.091H57.11C57.017,196.046,56.94,196.016,56.879,195.955z
				 M56.992,204.607c-0.061-0.061-0.091-0.138-0.091-0.231v-6.636c0-0.093,0.03-0.17,0.091-0.231
				c0.061-0.061,0.138-0.091,0.231-0.091h0.616c0.093,0,0.17,0.03,0.231,0.091c0.061,0.062,0.091,0.139,0.091,0.231v6.636
				c0,0.094-0.03,0.171-0.091,0.231c-0.061,0.061-0.138,0.091-0.231,0.091h-0.616C57.129,204.698,57.052,204.668,56.992,204.607z"/>
			<path fill="#E74C3C" d="M60.352,204.607c-0.061-0.061-0.091-0.138-0.091-0.231v-6.636c0-0.093,0.03-0.17,0.091-0.231
				c0.061-0.061,0.138-0.091,0.231-0.091h0.588c0.093,0,0.168,0.03,0.224,0.091c0.056,0.062,0.084,0.139,0.084,0.231v0.476
				c0.504-0.625,1.185-0.938,2.044-0.938c1.026,0,1.754,0.43,2.184,1.288c0.224-0.393,0.543-0.705,0.959-0.938
				c0.415-0.232,0.879-0.35,1.393-0.35c0.765,0,1.391,0.262,1.876,0.784c0.485,0.522,0.728,1.278,0.728,2.268v4.046
				c0,0.094-0.031,0.171-0.091,0.231s-0.138,0.091-0.231,0.091h-0.602c-0.093,0-0.17-0.03-0.231-0.091s-0.091-0.138-0.091-0.231
				v-3.92c0-0.746-0.154-1.281-0.462-1.603c-0.308-0.322-0.714-0.483-1.218-0.483c-0.448,0-0.833,0.166-1.155,0.497
				c-0.322,0.331-0.483,0.861-0.483,1.589v3.92c0,0.094-0.031,0.171-0.091,0.231s-0.138,0.091-0.231,0.091h-0.616
				c-0.094,0-0.17-0.03-0.231-0.091c-0.061-0.061-0.091-0.138-0.091-0.231v-3.92c0-0.737-0.161-1.269-0.483-1.596
				s-0.721-0.49-1.197-0.49c-0.448,0-0.833,0.163-1.155,0.49c-0.322,0.327-0.483,0.854-0.483,1.582v3.934
				c0,0.094-0.03,0.171-0.091,0.231c-0.061,0.061-0.138,0.091-0.231,0.091h-0.616C60.489,204.698,60.412,204.668,60.352,204.607z"/>
			<path fill="#E74C3C" d="M73.35,203.978c-0.485-0.574-0.728-1.337-0.728-2.289v-3.948c0-0.093,0.03-0.17,0.091-0.231
				c0.061-0.061,0.138-0.091,0.231-0.091h0.644c0.093,0,0.17,0.03,0.231,0.091c0.061,0.062,0.091,0.139,0.091,0.231v3.878
				c0,1.419,0.616,2.128,1.848,2.128c0.597,0,1.071-0.188,1.421-0.566c0.35-0.379,0.525-0.898,0.525-1.562v-3.878
				c0-0.093,0.03-0.17,0.091-0.231c0.061-0.061,0.138-0.091,0.231-0.091h0.644c0.093,0,0.17,0.03,0.231,0.091
				c0.061,0.062,0.091,0.139,0.091,0.231v6.636c0,0.094-0.03,0.171-0.091,0.231c-0.061,0.061-0.138,0.091-0.231,0.091h-0.602
				c-0.093,0-0.17-0.03-0.231-0.091s-0.091-0.138-0.091-0.231v-0.63c-0.271,0.364-0.588,0.637-0.952,0.819
				c-0.364,0.182-0.826,0.272-1.386,0.272C74.521,204.838,73.835,204.551,73.35,203.978z"/>
			<path fill="#E74C3C" d="M81.183,204.607c-0.061-0.061-0.091-0.138-0.091-0.231v-6.636c0-0.093,0.03-0.17,0.091-0.231
				c0.061-0.061,0.138-0.091,0.231-0.091h0.588c0.093,0,0.168,0.03,0.224,0.091c0.056,0.062,0.084,0.139,0.084,0.231v0.476
				c0.504-0.625,1.185-0.938,2.044-0.938c1.026,0,1.754,0.43,2.184,1.288c0.224-0.393,0.543-0.705,0.959-0.938
				c0.415-0.232,0.879-0.35,1.393-0.35c0.765,0,1.391,0.262,1.876,0.784c0.485,0.522,0.728,1.278,0.728,2.268v4.046
				c0,0.094-0.031,0.171-0.091,0.231s-0.138,0.091-0.231,0.091H90.57c-0.093,0-0.17-0.03-0.231-0.091s-0.091-0.138-0.091-0.231
				v-3.92c0-0.746-0.154-1.281-0.462-1.603c-0.308-0.322-0.714-0.483-1.218-0.483c-0.448,0-0.833,0.166-1.155,0.497
				c-0.322,0.331-0.483,0.861-0.483,1.589v3.92c0,0.094-0.031,0.171-0.091,0.231s-0.138,0.091-0.231,0.091h-0.616
				c-0.094,0-0.17-0.03-0.231-0.091c-0.061-0.061-0.091-0.138-0.091-0.231v-3.92c0-0.737-0.161-1.269-0.483-1.596
				s-0.721-0.49-1.197-0.49c-0.448,0-0.833,0.163-1.155,0.49c-0.322,0.327-0.483,0.854-0.483,1.582v3.934
				c0,0.094-0.03,0.171-0.091,0.231c-0.061,0.061-0.138,0.091-0.231,0.091h-0.616C81.321,204.698,81.244,204.668,81.183,204.607z"/>
		</g>
	</g>
	<g display="inline">
		<g>
			<path fill="#E74C3C" d="M242.116,424.407c-0.052-0.061-0.077-0.133-0.077-0.217c0-0.065,0.019-0.126,0.056-0.183l2.156-2.996
				c-0.224,0.057-0.485,0.084-0.784,0.084c-0.672-0.009-1.26-0.165-1.764-0.469c-0.504-0.303-0.889-0.7-1.155-1.189
				c-0.266-0.49-0.399-1.016-0.399-1.575c0-0.561,0.133-1.092,0.399-1.597c0.266-0.504,0.663-0.914,1.19-1.231
				s1.165-0.477,1.911-0.477s1.386,0.154,1.918,0.463c0.532,0.308,0.933,0.711,1.204,1.211c0.271,0.499,0.406,1.033,0.406,1.603
				c0,0.514-0.091,0.966-0.273,1.358c-0.182,0.392-0.422,0.798-0.721,1.218l-2.716,3.808c-0.065,0.084-0.128,0.152-0.189,0.203
				c-0.061,0.052-0.147,0.077-0.259,0.077h-0.7C242.235,424.498,242.167,424.468,242.116,424.407z M244.755,419.724
				c0.336-0.177,0.602-0.427,0.798-0.749c0.196-0.321,0.294-0.692,0.294-1.112c0-0.43-0.098-0.808-0.294-1.134
				c-0.196-0.327-0.462-0.579-0.798-0.757c-0.336-0.177-0.705-0.266-1.106-0.266c-0.392,0-0.754,0.089-1.085,0.266
				c-0.332,0.178-0.595,0.43-0.791,0.757c-0.196,0.326-0.294,0.704-0.294,1.134c0,0.42,0.098,0.791,0.294,1.112
				c0.196,0.322,0.457,0.572,0.784,0.749c0.327,0.178,0.69,0.267,1.092,0.267S244.419,419.901,244.755,419.724z"/>
			<path fill="#E74C3C" d="M250.131,424.26c-0.513-0.252-0.905-0.581-1.176-0.986c-0.271-0.406-0.416-0.843-0.434-1.31v-0.027
				c0-0.075,0.028-0.136,0.084-0.183s0.121-0.07,0.196-0.07h0.686c0.196,0,0.322,0.104,0.378,0.309
				c0.14,0.504,0.399,0.88,0.777,1.127s0.814,0.371,1.309,0.371c0.634,0,1.162-0.193,1.582-0.581c0.42-0.388,0.63-0.922,0.63-1.604
				c0-0.625-0.21-1.122-0.63-1.49c-0.42-0.369-0.947-0.554-1.582-0.554c-0.336,0-0.607,0.042-0.812,0.126
				c-0.206,0.084-0.416,0.206-0.63,0.364c-0.121,0.094-0.222,0.161-0.301,0.203c-0.08,0.042-0.166,0.062-0.259,0.062h-0.672
				c-0.084,0-0.159-0.029-0.224-0.091c-0.065-0.061-0.093-0.133-0.084-0.217l0.434-4.662c0.028-0.233,0.145-0.35,0.35-0.35h4.844
				c0.103,0,0.182,0.027,0.238,0.084c0.056,0.056,0.084,0.135,0.084,0.238v0.518c0,0.094-0.03,0.168-0.091,0.224
				c-0.061,0.057-0.138,0.084-0.231,0.084h-4.032l-0.252,2.814c0.448-0.317,1.05-0.477,1.806-0.477c0.625,0,1.194,0.124,1.708,0.371
				c0.513,0.248,0.921,0.609,1.225,1.085c0.303,0.477,0.455,1.041,0.455,1.694c0,0.69-0.152,1.286-0.455,1.785
				s-0.723,0.877-1.26,1.134s-1.15,0.385-1.841,0.385C251.251,424.638,250.644,424.512,250.131,424.26z"/>
			<path fill="#E74C3C" d="M257.019,417.141c-0.038-0.051-0.051-0.123-0.042-0.217l0.308-1.96c0.037-0.271,0.168-0.406,0.392-0.406
				h0.896c0.065,0,0.119,0.023,0.161,0.07s0.063,0.103,0.063,0.168c0,0.094-0.014,0.168-0.042,0.225l-0.728,1.89
				c-0.046,0.103-0.098,0.18-0.154,0.23c-0.056,0.052-0.14,0.077-0.252,0.077h-0.434
				C257.112,417.218,257.056,417.192,257.019,417.141z"/>
			<path fill="#E74C3C" d="M263.92,427.319c-0.056-0.062-0.084-0.138-0.084-0.231v-14.812c0-0.094,0.028-0.171,0.084-0.231
				c0.056-0.061,0.131-0.091,0.224-0.091h0.518c0.093,0,0.17,0.03,0.231,0.091s0.091,0.138,0.091,0.231v14.812
				c0,0.094-0.031,0.17-0.091,0.231c-0.061,0.061-0.138,0.091-0.231,0.091h-0.518C264.051,427.41,263.977,427.38,263.92,427.319z"/>
			<path fill="#E74C3C" d="M270.241,424.407c-0.061-0.061-0.091-0.138-0.091-0.231v-0.42c0-0.215,0.117-0.42,0.35-0.616l3.052-3.038
				c0.691-0.588,1.167-1.068,1.428-1.441c0.261-0.373,0.392-0.771,0.392-1.19c0-0.55-0.154-0.981-0.462-1.295
				c-0.308-0.312-0.756-0.469-1.344-0.469c-0.56,0-1.003,0.163-1.33,0.49c-0.327,0.326-0.527,0.766-0.602,1.315
				c-0.019,0.104-0.065,0.183-0.14,0.238s-0.149,0.084-0.224,0.084h-0.672c-0.084,0-0.154-0.028-0.21-0.084
				c-0.056-0.056-0.084-0.121-0.084-0.196c0.019-0.494,0.152-0.973,0.399-1.435c0.248-0.462,0.614-0.84,1.099-1.134
				s1.073-0.441,1.764-0.441c1.045,0,1.832,0.273,2.359,0.819s0.791,1.238,0.791,2.079c0,0.588-0.143,1.117-0.427,1.589
				c-0.285,0.472-0.73,0.968-1.337,1.491l-2.758,2.8h4.41c0.103,0,0.182,0.027,0.238,0.084c0.056,0.056,0.084,0.135,0.084,0.238
				v0.531c0,0.094-0.03,0.171-0.091,0.231c-0.061,0.061-0.138,0.091-0.231,0.091h-6.132
				C270.378,424.498,270.301,424.468,270.241,424.407z"/>
			<path fill="#E74C3C" d="M280.153,424.407c-0.052-0.061-0.077-0.133-0.077-0.217c0-0.065,0.019-0.126,0.056-0.183l2.156-2.996
				c-0.224,0.057-0.485,0.084-0.784,0.084c-0.672-0.009-1.26-0.165-1.764-0.469c-0.504-0.303-0.889-0.7-1.155-1.189
				c-0.266-0.49-0.399-1.016-0.399-1.575c0-0.561,0.133-1.092,0.399-1.597c0.266-0.504,0.663-0.914,1.19-1.231
				s1.165-0.477,1.911-0.477s1.386,0.154,1.918,0.463c0.532,0.308,0.933,0.711,1.204,1.211c0.271,0.499,0.406,1.033,0.406,1.603
				c0,0.514-0.091,0.966-0.273,1.358c-0.182,0.392-0.422,0.798-0.721,1.218l-2.716,3.808c-0.065,0.084-0.128,0.152-0.189,0.203
				c-0.061,0.052-0.147,0.077-0.259,0.077h-0.7C280.272,424.498,280.204,424.468,280.153,424.407z M282.792,419.724
				c0.336-0.177,0.602-0.427,0.798-0.749c0.196-0.321,0.294-0.692,0.294-1.112c0-0.43-0.098-0.808-0.294-1.134
				c-0.196-0.327-0.462-0.579-0.798-0.757c-0.336-0.177-0.705-0.266-1.106-0.266c-0.392,0-0.754,0.089-1.085,0.266
				c-0.332,0.178-0.595,0.43-0.791,0.757c-0.196,0.326-0.294,0.704-0.294,1.134c0,0.42,0.098,0.791,0.294,1.112
				c0.196,0.322,0.457,0.572,0.784,0.749c0.327,0.178,0.69,0.267,1.092,0.267S282.456,419.901,282.792,419.724z"/>
			<path fill="#E74C3C" d="M290.499,424.407c-0.061-0.061-0.091-0.138-0.091-0.231v-6.636c0-0.093,0.03-0.17,0.091-0.231
				c0.061-0.061,0.138-0.091,0.231-0.091h0.588c0.093,0,0.168,0.03,0.224,0.091c0.056,0.062,0.084,0.139,0.084,0.231v0.476
				c0.504-0.625,1.185-0.938,2.044-0.938c1.026,0,1.754,0.43,2.184,1.288c0.224-0.393,0.543-0.705,0.959-0.938
				c0.415-0.232,0.879-0.35,1.393-0.35c0.765,0,1.391,0.262,1.876,0.784c0.485,0.522,0.728,1.278,0.728,2.268v4.046
				c0,0.094-0.031,0.171-0.091,0.231s-0.138,0.091-0.231,0.091h-0.602c-0.093,0-0.17-0.03-0.231-0.091s-0.091-0.138-0.091-0.231
				v-3.92c0-0.746-0.154-1.281-0.462-1.603c-0.308-0.322-0.714-0.483-1.218-0.483c-0.448,0-0.833,0.166-1.155,0.497
				c-0.322,0.331-0.483,0.861-0.483,1.589v3.92c0,0.094-0.031,0.171-0.091,0.231s-0.138,0.091-0.231,0.091h-0.616
				c-0.094,0-0.17-0.03-0.231-0.091c-0.061-0.061-0.091-0.138-0.091-0.231v-3.92c0-0.737-0.161-1.269-0.483-1.596
				s-0.721-0.49-1.197-0.49c-0.448,0-0.833,0.163-1.155,0.49c-0.322,0.327-0.483,0.854-0.483,1.582v3.934
				c0,0.094-0.03,0.171-0.091,0.231c-0.061,0.061-0.138,0.091-0.231,0.091h-0.616C290.637,424.498,290.56,424.468,290.499,424.407z"
				/>
			<path fill="#E74C3C" d="M240.744,440.007c-0.061-0.061-0.091-0.138-0.091-0.231v-6.622c0-0.093,0.03-0.172,0.091-0.237
				c0.061-0.065,0.138-0.099,0.231-0.099h0.588c0.103,0,0.184,0.03,0.245,0.091c0.061,0.062,0.091,0.143,0.091,0.245v0.616
				c0.383-0.635,1.031-0.952,1.946-0.952h0.546c0.103,0,0.182,0.028,0.238,0.084c0.056,0.057,0.084,0.136,0.084,0.238v0.518
				c0,0.094-0.028,0.171-0.084,0.231c-0.056,0.061-0.135,0.091-0.238,0.091h-0.798c-0.514,0-0.917,0.149-1.211,0.448
				c-0.294,0.299-0.441,0.705-0.441,1.218v4.13c0,0.094-0.033,0.171-0.098,0.231c-0.065,0.061-0.145,0.091-0.238,0.091h-0.63
				C240.882,440.098,240.805,440.067,240.744,440.007z"/>
			<path fill="#E74C3C" d="M246.554,439.958c-0.387-0.187-0.695-0.441-0.924-0.764c-0.229-0.321-0.343-0.679-0.343-1.07
				c0-0.616,0.252-1.12,0.756-1.513c0.504-0.392,1.19-0.653,2.058-0.783l2.1-0.295v-0.405c0-0.962-0.555-1.442-1.666-1.442
				c-0.429,0-0.774,0.087-1.036,0.259c-0.262,0.173-0.453,0.376-0.574,0.609c-0.037,0.094-0.077,0.156-0.119,0.188
				c-0.042,0.033-0.1,0.05-0.175,0.05h-0.546c-0.084,0-0.156-0.03-0.217-0.092c-0.061-0.061-0.091-0.133-0.091-0.217
				c0-0.214,0.1-0.464,0.301-0.749c0.2-0.284,0.511-0.531,0.931-0.742c0.42-0.21,0.933-0.314,1.54-0.314
				c1.045,0,1.794,0.243,2.247,0.728c0.453,0.485,0.679,1.093,0.679,1.82v4.55c0,0.094-0.031,0.171-0.091,0.231
				s-0.138,0.091-0.231,0.091h-0.616c-0.094,0-0.168-0.03-0.224-0.091c-0.056-0.061-0.084-0.138-0.084-0.231v-0.616
				c-0.206,0.309-0.504,0.565-0.896,0.771s-0.896,0.308-1.512,0.308C247.363,440.237,246.941,440.145,246.554,439.958z
				 M249.613,438.613c0.392-0.4,0.588-0.984,0.588-1.75v-0.392l-1.638,0.238c-0.672,0.093-1.181,0.252-1.526,0.476
				c-0.346,0.224-0.518,0.504-0.518,0.84c0,0.383,0.156,0.677,0.469,0.882c0.312,0.206,0.684,0.309,1.113,0.309
				C248.717,439.216,249.221,439.015,249.613,438.613z"/>
			<path fill="#E74C3C" d="M253.959,439.286c-0.49-0.635-0.754-1.438-0.791-2.408l-0.014-0.42l0.014-0.42
				c0.037-0.962,0.303-1.762,0.798-2.401c0.495-0.64,1.227-0.959,2.198-0.959s1.727,0.346,2.268,1.036v-3.234
				c0-0.093,0.03-0.17,0.091-0.23s0.138-0.092,0.231-0.092h0.63c0.093,0,0.17,0.031,0.231,0.092c0.061,0.061,0.091,0.138,0.091,0.23
				v9.296c0,0.094-0.03,0.171-0.091,0.231c-0.061,0.061-0.138,0.091-0.231,0.091h-0.602c-0.094,0-0.168-0.03-0.224-0.091
				s-0.084-0.138-0.084-0.231v-0.602c-0.532,0.709-1.302,1.063-2.31,1.063C255.185,440.237,254.45,439.921,253.959,439.286z
				 M257.9,438.495c0.327-0.435,0.504-0.95,0.532-1.548c0.009-0.103,0.014-0.279,0.014-0.531c0-0.262-0.005-0.443-0.014-0.546
				c-0.019-0.569-0.198-1.062-0.539-1.478s-0.829-0.623-1.463-0.623c-0.672,0-1.162,0.21-1.47,0.63
				c-0.308,0.42-0.476,0.971-0.504,1.652l-0.014,0.406c0,1.792,0.663,2.688,1.988,2.688
				C257.084,439.146,257.574,438.929,257.9,438.495z"/>
			<path fill="#E74C3C" d="M261.799,431.354c-0.061-0.061-0.091-0.138-0.091-0.23v-0.729c0-0.093,0.03-0.173,0.091-0.238
				c0.061-0.064,0.138-0.098,0.231-0.098h0.826c0.093,0,0.173,0.033,0.238,0.098c0.065,0.065,0.098,0.146,0.098,0.238v0.729
				c0,0.093-0.033,0.17-0.098,0.23c-0.065,0.061-0.145,0.091-0.238,0.091h-0.826C261.937,431.445,261.86,431.415,261.799,431.354z
				 M261.912,440.007c-0.061-0.061-0.091-0.138-0.091-0.231v-6.636c0-0.093,0.03-0.17,0.091-0.231
				c0.061-0.061,0.138-0.091,0.231-0.091h0.616c0.093,0,0.17,0.03,0.231,0.091c0.061,0.062,0.091,0.139,0.091,0.231v6.636
				c0,0.094-0.03,0.171-0.091,0.231c-0.061,0.061-0.138,0.091-0.231,0.091h-0.616C262.049,440.098,261.972,440.067,261.912,440.007z
				"/>
			<path fill="#E74C3C" d="M265.838,439.377c-0.485-0.574-0.728-1.337-0.728-2.289v-3.948c0-0.093,0.03-0.17,0.091-0.231
				c0.061-0.061,0.138-0.091,0.231-0.091h0.644c0.093,0,0.17,0.03,0.231,0.091c0.061,0.062,0.091,0.139,0.091,0.231v3.878
				c0,1.419,0.616,2.128,1.848,2.128c0.597,0,1.071-0.188,1.421-0.566c0.35-0.379,0.525-0.898,0.525-1.562v-3.878
				c0-0.093,0.03-0.17,0.091-0.231c0.061-0.061,0.138-0.091,0.231-0.091h0.644c0.093,0,0.17,0.03,0.231,0.091
				c0.061,0.062,0.091,0.139,0.091,0.231v6.636c0,0.094-0.03,0.171-0.091,0.231c-0.061,0.061-0.138,0.091-0.231,0.091h-0.602
				c-0.093,0-0.17-0.03-0.231-0.091s-0.091-0.138-0.091-0.231v-0.63c-0.271,0.364-0.588,0.637-0.952,0.819
				c-0.364,0.182-0.826,0.272-1.386,0.272C267.01,440.237,266.324,439.95,265.838,439.377z"/>
			<path fill="#E74C3C" d="M274.441,439.923c-0.443-0.21-0.772-0.45-0.987-0.722c-0.215-0.271-0.322-0.494-0.322-0.672
				c0-0.093,0.033-0.165,0.098-0.217c0.065-0.051,0.135-0.077,0.21-0.077h0.588c0.056,0,0.1,0.01,0.133,0.028
				s0.077,0.061,0.133,0.126c0.214,0.262,0.455,0.467,0.721,0.616c0.266,0.149,0.623,0.224,1.071,0.224
				c0.504,0,0.907-0.093,1.211-0.28c0.303-0.187,0.455-0.457,0.455-0.812c0-0.233-0.065-0.42-0.196-0.56
				c-0.131-0.141-0.348-0.267-0.651-0.379c-0.303-0.111-0.754-0.232-1.351-0.363c-0.812-0.178-1.386-0.435-1.722-0.771
				c-0.336-0.336-0.504-0.77-0.504-1.302c0-0.345,0.103-0.679,0.308-1.001c0.205-0.322,0.511-0.583,0.917-0.784
				c0.406-0.2,0.889-0.301,1.449-0.301c0.588,0,1.089,0.098,1.505,0.294c0.415,0.196,0.728,0.425,0.938,0.686
				c0.21,0.262,0.315,0.481,0.315,0.658c0,0.084-0.03,0.154-0.091,0.21c-0.061,0.057-0.133,0.084-0.217,0.084h-0.532
				c-0.131,0-0.224-0.051-0.28-0.153c-0.159-0.178-0.292-0.315-0.399-0.413c-0.107-0.099-0.264-0.183-0.469-0.252
				c-0.206-0.07-0.462-0.105-0.77-0.105c-0.458,0-0.808,0.096-1.05,0.287s-0.364,0.446-0.364,0.763c0,0.196,0.051,0.362,0.154,0.497
				c0.103,0.136,0.299,0.262,0.588,0.378c0.29,0.117,0.719,0.236,1.288,0.357c0.887,0.187,1.514,0.453,1.883,0.798
				c0.368,0.346,0.553,0.789,0.553,1.33c0,0.401-0.114,0.766-0.343,1.092c-0.229,0.327-0.569,0.584-1.022,0.771
				c-0.453,0.187-0.992,0.279-1.617,0.279C275.428,440.237,274.884,440.133,274.441,439.923z"/>
		</g>
	</g>
	<g display="inline">
		<g>
			<g id="POLYLINE_53_">
				
					<line fill="none" stroke="#E74C3C" stroke-width="2" stroke-linecap="round" stroke-linejoin="round" stroke-miterlimit="10" x1="522.631" y1="474.707" x2="492.571" y2="444.648"/>
			</g>
			<g id="LINE_2_">
				
					<line fill="none" stroke="#E74C3C" stroke-width="2" stroke-linecap="round" stroke-linejoin="round" stroke-miterlimit="10" x1="462.959" y1="415.036" x2="440.462" y2="392.538"/>
			</g>
			<g id="POLYLINE_52_">
				
					<polyline fill="none" stroke="#E74C3C" stroke-width="2" stroke-linecap="round" stroke-linejoin="round" stroke-miterlimit="10" points="
					439.567,401.018 439.567,391.643 448.94,391.645 				"/>
			</g>
			<g id="POLYLINE_36_">
				
					<polyline fill="none" stroke="#E74C3C" stroke-width="2" stroke-linecap="round" stroke-linejoin="round" stroke-miterlimit="10" points="
					522.631,465.335 522.631,474.707 513.258,474.708 				"/>
			</g>
			<g id="MTEXT_2_">
				<g>
					<g>
						<g>
							<path fill="#E74C3C" d="M471.312,421.317c-0.052-0.061-0.077-0.133-0.077-0.217c0-0.065,0.019-0.126,0.056-0.183l2.156-2.996
								c-0.224,0.057-0.485,0.084-0.784,0.084c-0.672-0.009-1.26-0.165-1.764-0.469c-0.504-0.303-0.889-0.7-1.155-1.189
								c-0.266-0.49-0.399-1.016-0.399-1.575c0-0.561,0.133-1.092,0.399-1.597c0.266-0.504,0.663-0.914,1.19-1.231
								s1.165-0.477,1.911-0.477s1.386,0.154,1.918,0.463c0.532,0.308,0.933,0.711,1.204,1.211c0.271,0.499,0.406,1.033,0.406,1.603
								c0,0.514-0.091,0.966-0.273,1.358c-0.182,0.392-0.422,0.798-0.721,1.218l-2.716,3.808c-0.065,0.084-0.128,0.152-0.189,0.203
								c-0.061,0.052-0.147,0.077-0.259,0.077h-0.7C471.431,421.408,471.363,421.378,471.312,421.317z M473.951,416.634
								c0.336-0.177,0.602-0.427,0.798-0.749c0.196-0.321,0.294-0.692,0.294-1.112c0-0.43-0.098-0.808-0.294-1.134
								c-0.196-0.327-0.462-0.579-0.798-0.757c-0.336-0.177-0.705-0.266-1.106-0.266c-0.392,0-0.754,0.089-1.085,0.266
								c-0.332,0.178-0.595,0.43-0.791,0.757c-0.196,0.326-0.294,0.704-0.294,1.134c0,0.42,0.098,0.791,0.294,1.112
								c0.196,0.322,0.457,0.572,0.784,0.749c0.327,0.178,0.69,0.267,1.092,0.267S473.615,416.812,473.951,416.634z"/>
							<path fill="#E74C3C" d="M478.858,420.491c-0.556-0.705-0.852-1.626-0.889-2.765l-0.014-1.204l0.014-1.246
								c0.028-1.129,0.324-2.046,0.889-2.751c0.564-0.705,1.444-1.058,2.639-1.058c1.204,0,2.088,0.353,2.653,1.058
								c0.564,0.705,0.861,1.622,0.889,2.751c0.009,0.262,0.014,0.677,0.014,1.246c0,0.551-0.005,0.952-0.014,1.204
								c-0.037,1.139-0.333,2.06-0.889,2.765c-0.556,0.705-1.44,1.057-2.653,1.057C480.293,421.548,479.414,421.196,478.858,420.491
								z M483.121,419.672c0.364-0.476,0.555-1.147,0.574-2.016c0.009-0.271,0.014-0.658,0.014-1.162
								c0-0.513-0.005-0.896-0.014-1.147c-0.019-0.859-0.212-1.528-0.581-2.01c-0.369-0.48-0.908-0.721-1.617-0.721
								s-1.246,0.24-1.61,0.721c-0.364,0.481-0.555,1.15-0.574,2.01l-0.014,1.147l0.014,1.162c0.019,0.868,0.21,1.54,0.574,2.016
								c0.364,0.477,0.9,0.714,1.61,0.714C482.216,420.386,482.757,420.148,483.121,419.672z"/>
							<path fill="#E74C3C" d="M486.789,414.051c-0.038-0.051-0.051-0.123-0.042-0.217l0.308-1.96
								c0.037-0.271,0.168-0.406,0.392-0.406h0.896c0.065,0,0.119,0.023,0.161,0.07s0.063,0.103,0.063,0.168
								c0,0.094-0.014,0.168-0.042,0.225l-0.728,1.89c-0.046,0.103-0.098,0.18-0.154,0.23c-0.056,0.052-0.14,0.077-0.252,0.077
								h-0.434C486.882,414.128,486.826,414.103,486.789,414.051z"/>
							<path fill="#E74C3C" d="M469.576,436.917c-0.061-0.061-0.091-0.138-0.091-0.231v-0.42c0-0.215,0.117-0.42,0.35-0.616
								l3.052-3.038c0.691-0.588,1.167-1.068,1.428-1.441c0.261-0.373,0.392-0.771,0.392-1.19c0-0.55-0.154-0.981-0.462-1.295
								c-0.308-0.312-0.756-0.469-1.344-0.469c-0.56,0-1.003,0.163-1.33,0.49c-0.327,0.326-0.527,0.766-0.602,1.315
								c-0.019,0.104-0.065,0.183-0.14,0.238s-0.149,0.084-0.224,0.084h-0.672c-0.084,0-0.154-0.028-0.21-0.084
								c-0.056-0.056-0.084-0.121-0.084-0.196c0.019-0.494,0.152-0.973,0.399-1.435c0.248-0.462,0.614-0.84,1.099-1.134
								s1.073-0.441,1.764-0.441c1.045,0,1.832,0.273,2.359,0.819s0.791,1.238,0.791,2.079c0,0.588-0.143,1.117-0.427,1.589
								c-0.285,0.472-0.73,0.968-1.337,1.491l-2.758,2.8h4.41c0.103,0,0.182,0.027,0.238,0.084c0.056,0.056,0.084,0.135,0.084,0.238
								v0.531c0,0.094-0.03,0.171-0.091,0.231c-0.061,0.061-0.138,0.091-0.231,0.091h-6.132
								C469.714,437.008,469.637,436.978,469.576,436.917z"/>
							<path fill="#E74C3C" d="M478.872,436.917c-0.051-0.061-0.077-0.133-0.077-0.217l0.028-0.126l3.5-8.19h-4.62
								c-0.093,0-0.17-0.03-0.231-0.091c-0.061-0.061-0.091-0.138-0.091-0.231v-0.518c0-0.103,0.028-0.185,0.084-0.245
								c0.056-0.061,0.135-0.091,0.238-0.091h5.712c0.103,0,0.182,0.03,0.238,0.091c0.056,0.061,0.084,0.143,0.084,0.245v0.476
								c0,0.168-0.038,0.351-0.112,0.546l-3.458,8.093c-0.047,0.103-0.098,0.187-0.154,0.252s-0.135,0.098-0.238,0.098h-0.7
								C478.991,437.008,478.923,436.978,478.872,436.917z"/>
							<path fill="#E74C3C" d="M484.234,436.917c-0.061-0.061-0.091-0.138-0.091-0.231v-0.966c0-0.093,0.03-0.173,0.091-0.238
								c0.061-0.064,0.138-0.098,0.231-0.098h0.966c0.093,0,0.17,0.033,0.231,0.098c0.061,0.065,0.091,0.146,0.091,0.238v0.966
								c0,0.094-0.03,0.171-0.091,0.231c-0.061,0.061-0.138,0.091-0.231,0.091h-0.966
								C484.372,437.008,484.295,436.978,484.234,436.917z"/>
							<path fill="#E74C3C" d="M491.864,436.917c-0.061-0.061-0.091-0.138-0.091-0.231v-2.044h-4.55c-0.093,0-0.17-0.03-0.231-0.091
								s-0.091-0.138-0.091-0.231v-0.518c0-0.131,0.051-0.271,0.154-0.42l4.214-5.936c0.047-0.075,0.117-0.134,0.21-0.176
								c0.093-0.042,0.196-0.062,0.308-0.062h0.952c0.103,0,0.182,0.027,0.238,0.084c0.056,0.056,0.084,0.135,0.084,0.238v5.936
								h1.274c0.093,0,0.17,0.03,0.231,0.091c0.061,0.061,0.091,0.138,0.091,0.231v0.531c0,0.094-0.03,0.171-0.091,0.231
								c-0.061,0.061-0.138,0.091-0.231,0.091h-1.274v2.044c0,0.094-0.031,0.171-0.091,0.231s-0.138,0.091-0.231,0.091h-0.644
								C492.002,437.008,491.925,436.978,491.864,436.917z M488.357,433.494h3.43v-4.872L488.357,433.494z"/>
							<path fill="#E74C3C" d="M497.373,436.791c-0.532-0.238-0.936-0.549-1.211-0.932c-0.275-0.382-0.422-0.778-0.441-1.189
								c0-0.084,0.028-0.151,0.084-0.203c0.056-0.051,0.126-0.077,0.21-0.077h0.63c0.103,0,0.187,0.021,0.252,0.063
								s0.117,0.123,0.154,0.245c0.121,0.476,0.385,0.812,0.791,1.008c0.406,0.195,0.884,0.294,1.435,0.294
								c0.672,0,1.206-0.161,1.603-0.483c0.396-0.322,0.595-0.781,0.595-1.379c0-1.139-0.695-1.708-2.086-1.708h-1.316
								c-0.094,0-0.17-0.03-0.231-0.091c-0.061-0.061-0.091-0.138-0.091-0.231v-0.363c0-0.141,0.051-0.262,0.154-0.364l2.73-3.024
								h-4.144c-0.093,0-0.17-0.027-0.231-0.084c-0.061-0.056-0.091-0.13-0.091-0.224v-0.504c0-0.103,0.03-0.185,0.091-0.245
								c0.061-0.061,0.138-0.091,0.231-0.091h5.544c0.103,0,0.184,0.03,0.245,0.091c0.061,0.061,0.091,0.143,0.091,0.245v0.462
								c0,0.103-0.047,0.21-0.14,0.322l-2.73,3.065h0.224c0.952,0.028,1.706,0.275,2.261,0.742c0.555,0.467,0.833,1.148,0.833,2.044
								c0,0.616-0.152,1.146-0.455,1.589c-0.304,0.443-0.726,0.784-1.267,1.022c-0.542,0.238-1.153,0.356-1.834,0.356
								C498.535,437.147,497.905,437.029,497.373,436.791z"/>
							<path fill="#E74C3C" d="M508.076,436.917c-0.061-0.061-0.091-0.138-0.091-0.231v-6.636c0-0.093,0.03-0.17,0.091-0.231
								c0.061-0.061,0.138-0.091,0.231-0.091h0.588c0.093,0,0.168,0.03,0.224,0.091c0.056,0.062,0.084,0.139,0.084,0.231v0.476
								c0.504-0.625,1.185-0.938,2.044-0.938c1.026,0,1.754,0.43,2.184,1.288c0.224-0.393,0.543-0.705,0.959-0.938
								c0.415-0.232,0.879-0.35,1.393-0.35c0.765,0,1.391,0.262,1.876,0.784c0.485,0.522,0.728,1.278,0.728,2.268v4.046
								c0,0.094-0.031,0.171-0.091,0.231s-0.138,0.091-0.231,0.091h-0.602c-0.093,0-0.17-0.03-0.231-0.091s-0.091-0.138-0.091-0.231
								v-3.92c0-0.746-0.154-1.281-0.462-1.603c-0.308-0.322-0.714-0.483-1.218-0.483c-0.448,0-0.833,0.166-1.155,0.497
								c-0.322,0.331-0.483,0.861-0.483,1.589v3.92c0,0.094-0.031,0.171-0.091,0.231s-0.138,0.091-0.231,0.091h-0.616
								c-0.094,0-0.17-0.03-0.231-0.091c-0.061-0.061-0.091-0.138-0.091-0.231v-3.92c0-0.737-0.161-1.269-0.483-1.596
								s-0.721-0.49-1.197-0.49c-0.448,0-0.833,0.163-1.155,0.49c-0.322,0.327-0.483,0.854-0.483,1.582v3.934
								c0,0.094-0.03,0.171-0.091,0.231c-0.061,0.061-0.138,0.091-0.231,0.091h-0.616
								C508.214,437.008,508.137,436.978,508.076,436.917z"/>
						</g>
					</g>
				</g>
			</g>
		</g>
		<g>
			<g>
				
					<line fill="none" stroke="#E74C3C" stroke-width="1.75" stroke-linecap="round" stroke-miterlimit="10" x1="386.164" y1="443.164" x2="386.871" y2="442.457"/>
				
					<line fill="none" stroke="#E74C3C" stroke-width="1.75" stroke-linecap="round" stroke-miterlimit="10" stroke-dasharray="1.9704,3.9409" x1="389.658" y1="439.671" x2="430.064" y2="399.265"/>
				
					<line fill="none" stroke="#E74C3C" stroke-width="1.75" stroke-linecap="round" stroke-miterlimit="10" x1="431.457" y1="397.872" x2="432.164" y2="397.164"/>
			</g>
		</g>
	</g>
</g>
<g id="N-TEXT" display="none">
</g>
<g id="AG-DIAGRAM">
</g>
<g id="AG-DETAIL">
	<g id="POLYLINE_125_">
		<path fill="none" stroke="#E74C3C" stroke-width="1.75" stroke-miterlimit="10" d="M386.055,617.596
			c0.696-0.696,1.392-1.392,2.089-2.089c1.988-1.988,3.976-3.976,5.963-5.963c3.142-3.142,6.283-6.283,9.425-9.425
			c4.172-4.172,8.345-8.345,12.517-12.517c5.022-5.022,10.043-10.043,15.065-15.065c5.797-5.797,11.593-11.593,17.39-17.39
			c6.361-6.361,12.722-12.722,19.083-19.083c6.868-6.868,13.736-13.736,20.604-20.604c7.174-7.174,14.349-14.349,21.523-21.523
			c7.364-7.364,14.728-14.728,22.092-22.092c7.44-7.44,14.879-14.879,22.319-22.319c7.307-7.307,14.614-14.614,21.921-21.921
			c7.129-7.129,14.258-14.258,21.388-21.388c6.745-6.745,13.49-13.49,20.234-20.234c6.246-6.246,12.491-12.491,18.737-18.737
			c5.625-5.625,11.251-11.251,16.876-16.876c4.818-4.818,9.635-9.635,14.453-14.453c3.933-3.933,7.866-7.866,11.799-11.799
			c2.861-2.861,5.723-5.723,8.584-8.584c1.688-1.688,3.376-3.376,5.064-5.064c0.301-0.301,0.857-0.677,1.057-1.057
			c0.025-0.047,0.124-0.086,0.137-0.137c0.045-0.18-0.213-0.7-0.264-0.868c-0.183-0.603-0.366-1.206-0.55-1.809
			c-0.236-0.77-0.48-1.538-0.721-2.307c-2.035-6.48-4.272-12.901-6.705-19.242c-2.494-6.501-5.179-12.923-8.057-19.263
			c-2.825-6.222-5.855-12.348-9.055-18.385c-3.118-5.882-6.424-11.671-9.909-17.343c-3.641-5.926-7.454-11.745-11.465-17.428
			c-4.06-5.752-8.314-11.355-12.72-16.845c-4.248-5.292-8.704-10.427-13.301-15.419c-4.697-5.101-9.554-10.062-14.585-14.833
			c-5.195-4.927-10.541-9.677-16.036-14.266c-5.306-4.43-10.784-8.664-16.382-12.718c-5.563-4.028-11.251-7.899-17.077-11.538
			c-6.044-3.776-12.188-7.373-18.458-10.762c-6.174-3.336-12.467-6.448-18.848-9.369c-6.164-2.822-12.426-5.447-18.763-7.855
			c-6.546-2.488-13.161-4.785-19.851-6.855c-6.722-2.08-13.507-3.936-20.345-5.597c-6.485-1.576-13.028-2.936-19.598-4.105
			c-6.729-1.197-13.494-2.203-20.284-2.986c-6.879-0.793-13.774-1.378-20.687-1.786c-6.725-0.397-13.475-0.582-20.211-0.552
			c-7.165,0.032-14.321,0.249-21.473,0.685c-6.555,0.399-13.102,1.005-19.621,1.791c-6.8,0.82-13.58,1.834-20.316,3.072
			c-6.892,1.266-13.735,2.744-20.54,4.412c-6.611,1.62-13.17,3.478-19.661,5.525c-6.547,2.064-13.042,4.319-19.439,6.809
			c-6.594,2.566-13.104,5.321-19.527,8.29c-6.362,2.941-12.622,6.11-18.772,9.471c-5.972,3.264-11.853,6.713-17.591,10.373
			c-5.99,3.822-11.866,7.811-17.598,12.011c-5.725,4.194-11.297,8.591-16.732,13.154c-5.177,4.347-10.209,8.878-15.083,13.563
			c-5.074,4.877-9.996,9.911-14.734,15.115c-4.745,5.212-9.304,10.58-13.715,16.078c-4.251,5.298-8.305,10.763-12.193,16.332
			c-3.912,5.602-7.658,11.328-11.195,17.175c-3.613,5.975-7.046,12.048-10.298,18.227c-3.154,5.992-6.105,12.095-8.873,18.275
			c-2.733,6.102-5.301,12.284-7.655,18.543c-2.502,6.652-4.826,13.368-6.928,20.158c-0.261,0.842-0.513,1.686-0.77,2.529
			c-0.042,0.14-0.192,0.419-0.151,0.56c0.023,0.08,0.177,0.158,0.226,0.226c0.317,0.445,0.83,0.83,1.215,1.215
			c1.78,1.78,3.56,3.56,5.34,5.34c2.968,2.968,5.936,5.936,8.905,8.905c3.985,3.985,7.971,7.971,11.956,11.956
			c4.915,4.915,9.83,9.83,14.745,14.745c5.645,5.645,11.291,11.291,16.936,16.936c6.309,6.309,12.619,12.619,18.928,18.928
			c6.778,6.778,13.557,13.557,20.335,20.335c7.129,7.129,14.258,14.258,21.387,21.387c7.365,7.365,14.731,14.731,22.096,22.096
			c7.394,7.394,14.787,14.787,22.181,22.181c7.378,7.378,14.755,14.755,22.133,22.133c7.153,7.154,14.307,14.307,21.46,21.46
			c6.815,6.815,13.63,13.63,20.446,20.446c6.358,6.358,12.717,12.717,19.075,19.075c5.706,5.706,11.413,11.413,17.119,17.119
			c4.989,4.989,9.977,9.977,14.966,14.966c4.071,4.071,8.142,8.142,12.212,12.212c3.066,3.066,6.133,6.133,9.199,9.199
			c1.89,1.89,3.781,3.781,5.671,5.671c0.592,0.592,1.184,1.184,1.776,1.776"/>
	</g>
	<g id="POLYLINE_124_">
		
			<rect x="373.899" y="617.596" fill="none" stroke="#E74C3C" stroke-width="1.75" stroke-miterlimit="10" width="5.455" height="8.182"/>
	</g>
	<g id="POLYLINE_123_">
		
			<rect x="382.646" y="617.596" fill="none" stroke="#E74C3C" stroke-width="1.75" stroke-miterlimit="10" width="5.455" height="8.182"/>
	</g>
	<g id="POLYLINE_122_">
		<polyline fill="none" stroke="#E74C3C" stroke-width="1.75" stroke-miterlimit="10" points="383.443,625.778 383.443,633.56 
			378.557,633.56 378.557,625.778 		"/>
	</g>
</g>
<g id="AG-SPORTS">
	<g id="POLYLINE_69_">
		<path fill="none" stroke="#E74C3C" stroke-width="2.5" stroke-miterlimit="10" d="M396.089,613.347
			c1.464-1.464,2.928-2.928,4.393-4.393c3.88-3.88,7.76-7.76,11.64-11.64c5.527-5.527,11.055-11.055,16.582-16.582
			c6.406-6.406,12.812-12.812,19.218-19.218c6.516-6.516,13.031-13.031,19.547-19.547c5.857-5.857,11.714-11.714,17.57-17.57
			c4.442-4.442,8.883-8.883,13.325-13.325c2.224-2.224,4.447-4.447,6.671-6.671c0.079-0.079,0.336-0.254,0.367-0.367
			c0.09-0.329-0.308-1.065-0.417-1.425c-0.213-0.702-0.43-1.402-0.654-2.1c-0.885-2.753-1.862-5.477-2.929-8.164
			c-2.194-5.525-4.768-10.9-7.7-16.071c-3.019-5.324-6.414-10.434-10.153-15.28c-3.549-4.599-7.409-8.962-11.545-13.04
			c-4.127-4.069-8.522-7.864-13.154-11.347c-4.561-3.43-9.35-6.547-14.319-9.352c-5.077-2.866-10.357-5.37-15.774-7.524
			c-5.69-2.263-11.545-4.107-17.498-5.541c-5.784-1.393-11.664-2.377-17.584-2.962c-5.718-0.565-11.474-0.743-17.216-0.542
			c-5.848,0.205-11.678,0.81-17.445,1.8c-5.961,1.023-11.847,2.474-17.606,4.319c-5.72,1.833-11.317,4.067-16.724,6.683
			c-5.134,2.484-10.108,5.295-14.873,8.431c-4.846,3.189-9.48,6.702-13.855,10.511c-4.277,3.723-8.304,7.727-12.06,11.975
			c-3.993,4.516-7.667,9.316-10.988,14.347c-3.325,5.038-6.303,10.305-8.894,15.757c-2.505,5.271-4.658,10.708-6.43,16.269
			c-0.221,0.693-0.437,1.387-0.646,2.083c-0.082,0.271-0.415,0.932-0.329,1.183c0.047,0.138,0.324,0.324,0.424,0.424
			c0.824,0.823,1.647,1.647,2.47,2.47c3.474,3.474,6.948,6.948,10.422,10.422c5.27,5.27,10.539,10.539,15.809,15.809
			c6.296,6.296,12.593,12.593,18.889,18.889c6.554,6.554,13.109,13.109,19.663,19.663c6.044,6.044,12.087,12.087,18.131,18.131
			c4.764,4.764,9.529,9.529,14.293,14.293c2.716,2.716,5.433,5.433,8.149,8.149c0.257,0.257,0.593,0.512,0.807,0.807
			c0.24,0.331,0.223,0.067,0.099,0.485c-0.146,0.493-0.562,1.004-0.786,1.476c-0.243,0.514-0.462,1.04-0.655,1.576
			c-0.386,1.074-0.669,2.183-0.844,3.31c-0.704,4.547,0.428,9.283,3.107,13.023c2.711,3.786,6.897,6.398,11.491,7.163
			c4.509,0.751,9.211-0.295,12.977-2.885c3.766-2.59,6.424-6.627,7.324-11.107C399.259,621.766,398.425,617.148,396.089,613.347z"/>
	</g>
	<g id="POLYLINE_68_">
		<path fill="none" stroke="#E74C3C" stroke-width="2.5" stroke-miterlimit="10" d="M452.693,526.565
			c-2.617,4.26-3.325,9.511-1.917,14.307c0.419,1.428,1.169,2.632,1.727,3.986c0.212,0.514-0.01,0.514-0.435,0.939
			c-1.736,1.736-3.473,3.473-5.209,5.209c-6.857,6.857-13.715,13.715-20.572,20.572c-7.723,7.723-15.445,15.445-23.168,23.168
			c-2.818,2.818-5.636,5.636-8.454,8.454c-0.909,0.909-1.817,1.817-2.726,2.726c-0.416,0.416-0.935,1.184-1.461,1.461
			c-0.158,0.083-0.094,0.134-0.241,0.137c-0.211,0.004-0.694-0.404-0.887-0.507c-0.329-0.176-0.664-0.341-1.004-0.496
			c-1.254-0.571-2.574-0.996-3.926-1.262c-2.203-0.434-4.486-0.444-6.693-0.029c-1.331,0.25-2.632,0.653-3.871,1.198
			c-0.571,0.252-1.813,1.218-2.299,0.999c-0.473-0.213-0.994-0.994-1.356-1.356c-0.881-0.881-1.763-1.763-2.644-2.644
			c-6.452-6.452-12.904-12.904-19.356-19.356c-7.851-7.851-15.703-15.703-23.554-23.554c-4.885-4.885-9.77-9.77-14.655-14.655
			c-0.346-0.346-0.631-0.48-0.577-0.873c0.076-0.546,0.725-1.313,0.96-1.836c0.302-0.67,0.563-1.359,0.779-2.062
			c0.683-2.215,0.925-4.56,0.71-6.867c-0.111-1.186-0.341-2.36-0.687-3.5c-0.206-0.679-0.453-1.346-0.739-1.996
			c-0.275-0.623-0.792-1.272-0.984-1.914c-0.14-0.466-0.144-0.088-0.007-0.393c0.08-0.178,0.375-0.375,0.512-0.512
			c0.68-0.68,1.36-1.36,2.04-2.04c5.981-5.981,11.962-11.962,17.943-17.943c7.937-7.937,15.873-15.873,23.81-23.81
			c5.467-5.467,10.933-10.933,16.4-16.4c0.379-0.379,0.899-1.155,1.388-1.388c0.509-0.242,1.653,0.691,2.242,0.953
			c2.263,1.008,4.735,1.534,7.213,1.534s4.949-0.526,7.213-1.534c0.59-0.263,1.733-1.195,2.242-0.953
			c0.489,0.233,1.01,1.01,1.388,1.388c5.445,5.445,10.89,10.89,16.336,16.336c7.958,7.958,15.917,15.917,23.875,23.875
			c5.981,5.981,11.962,11.962,17.943,17.943C450.896,524.767,451.794,525.666,452.693,526.565z"/>
	</g>
	<g id="POLYLINE_67_">
		<polyline fill="none" stroke="#E74C3C" stroke-width="2.5" stroke-miterlimit="10" points="460.693,658.666 414.89,704.469 
			347.11,704.469 301.307,658.666 		"/>
	</g>
	<g id="POLYLINE_62_">
		<path fill="none" stroke="#E74C3C" stroke-width="2.5" stroke-miterlimit="10" d="M427.18,640.133
			c0.001-3.129,4.057-4.583,6.044-2.163c1.986,2.419-0.228,6.116-3.298,5.507C428.349,643.164,427.181,641.74,427.18,640.133z"/>
	</g>
	<g id="POLYLINE_61_">
		<path fill="none" stroke="#E74C3C" stroke-width="2.5" stroke-miterlimit="10" d="M334.82,640.133
			c-0.001-3.129-4.057-4.583-6.044-2.163c-1.986,2.419,0.228,6.116,3.298,5.507C333.651,643.164,334.819,641.74,334.82,640.133z"/>
	</g>
	<g id="POLYLINE_60_">
		<polygon fill="none" stroke="#E74C3C" stroke-width="2.5" stroke-miterlimit="10" points="380.036,620.721 380.036,621.687 
			381,622.651 381.964,621.687 381.964,620.721 		"/>
	</g>
	<g id="POLYLINE_59_">
		
			<rect x="380.148" y="448.234" transform="matrix(0.7071 -0.7071 0.7071 0.7071 -205.9594 400.9419)" fill="none" stroke="#E74C3C" stroke-width="2.5" stroke-miterlimit="10" width="1.705" height="1.705"/>
	</g>
	<g id="POLYLINE_58_">
		
			<rect x="379.636" y="539.469" fill="none" stroke="#E74C3C" stroke-width="2.5" stroke-miterlimit="10" width="2.727" height="0.682"/>
	</g>
	<g id="POLYLINE_57_">
		<path fill="none" stroke="#E74C3C" stroke-width="2.5" stroke-miterlimit="10" d="M393.273,542.197
			c-0.009-5.128-3.304-9.824-8.137-11.554c-4.826-1.728-10.368-0.196-13.621,3.766c-3.254,3.963-3.676,9.694-1.044,14.093
			c2.632,4.398,7.889,6.73,12.917,5.733c5.008-0.993,8.97-5.129,9.743-10.176C393.225,543.443,393.272,542.82,393.273,542.197z"/>
	</g>
	<g id="POLYLINE_56_">
		
			<rect x="465.725" y="535.016" transform="matrix(0.7071 -0.7071 0.7071 0.7071 -242.259 486.8723)" fill="none" stroke="#E74C3C" stroke-width="2.5" stroke-miterlimit="10" width="1.705" height="1.705"/>
	</g>
	<g id="POLYLINE_55_">
		
			<rect x="294.57" y="535.016" transform="matrix(0.7071 -0.7071 0.7071 0.7071 -292.389 365.8476)" fill="none" stroke="#E74C3C" stroke-width="2.5" stroke-miterlimit="10" width="1.705" height="1.705"/>
	</g>
	<g id="POLYLINE_54_">
		
			<rect x="463.789" y="557.977" transform="matrix(0.7071 -0.7071 0.7071 0.7071 -259.5363 503.0153)" fill="none" stroke="#E74C3C" stroke-width="2.5" stroke-miterlimit="10" width="27.273" height="13.636"/>
	</g>
	<g id="POLYLINE_49_">
		
			<rect x="277.757" y="551.159" transform="matrix(0.7071 -0.7071 0.7071 0.7071 -316.0208 366.6497)" fill="none" stroke="#E74C3C" stroke-width="2.5" stroke-miterlimit="10" width="13.636" height="27.273"/>
	</g>
</g>
</svg>
